<svg width="1200" height="415" viewBox="0 0 1200 415" fill="none" xmlns="http://www.w3.org/2000/svg">
<g opacity="0.03" clip-path="url(#clip0_2591_4224)">
<mask id="mask0_2591_4224" style="mask-type:luminance" maskUnits="userSpaceOnUse" x="0" y="-130" width="1200" height="675">
<path d="M1200 -130L0 -130L0 545L1200 545V-130Z" fill="white"/>
</mask>
<g mask="url(#mask0_2591_4224)">
<path d="M630.95 -71.4664L703.309 0.779709L630.95 73.0258C625.174 78.792 625.174 88.1416 630.95 93.9077C633.838 96.7908 637.623 98.232 641.407 98.232C645.191 98.232 648.976 96.7908 651.864 93.9077L724.224 21.6617L796.584 93.9086C799.471 96.7917 803.256 98.2328 807.041 98.2328C810.825 98.2328 814.61 96.7917 817.498 93.9086L889.858 21.6617L962.218 93.9086C965.105 96.7917 968.89 98.2328 972.674 98.2328C976.459 98.2328 980.244 96.7917 983.131 93.9086C988.907 88.1424 988.907 78.7928 983.131 73.0266L910.772 0.779709L972.674 -61.0258L1045.03 11.2211C1047.92 14.1042 1051.71 15.5453 1055.49 15.5453C1059.28 15.5453 1063.06 14.1042 1065.95 11.2211L1148.77 -71.4664L1231.58 -154.154C1237.36 -159.92 1237.36 -169.27 1231.58 -175.036C1225.81 -180.802 1216.44 -180.802 1210.67 -175.036L1127.85 -92.3483L1055.49 -20.1023L983.131 -92.3492L900.314 -175.037C894.539 -180.803 885.176 -180.803 879.401 -175.037L807.041 -102.79L734.681 -175.037C728.905 -180.803 719.542 -180.803 713.767 -175.037L641.407 -102.79L569.047 -175.037C563.272 -180.803 553.907 -180.803 548.132 -175.037C542.357 -169.271 542.357 -159.921 548.132 -154.155L630.95 -71.4664ZM724.224 -143.713L786.126 -81.9078L724.224 -20.1023L662.322 -81.9078L724.224 -143.713ZM889.858 -143.713L951.76 -81.9078L889.858 -20.1023L827.955 -81.9078L889.858 -143.713ZM807.041 62.5852L745.138 0.779709L807.041 -61.0258L868.943 0.779709L807.041 62.5852Z" fill="#E8ECF1"/>
<path d="M1210.67 -92.35L1127.85 -9.66253L1055.49 62.5844L983.132 -9.66253C977.357 -15.4287 967.993 -15.4287 962.218 -9.66253C956.442 -3.89635 956.442 5.45324 962.218 11.2194L1034.58 83.4664L972.675 145.272L900.315 73.025C894.54 67.2588 885.177 67.2588 879.401 73.025L807.041 145.272L734.681 73.025C728.906 67.2588 719.543 67.2588 713.768 73.025L641.408 145.272L579.505 83.4664L651.864 11.2203C657.641 5.45409 657.641 -3.8955 651.864 -9.66168L569.048 -92.3492L486.231 -175.037C480.455 -180.803 471.091 -180.803 465.316 -175.037L382.499 -92.3492L310.14 -20.1031L248.238 -81.9086L320.597 -154.155C326.372 -159.921 326.372 -169.27 320.597 -175.037C314.822 -180.803 305.457 -180.803 299.682 -175.037L227.323 -102.791L154.964 -175.037C149.189 -180.803 139.824 -180.803 134.049 -175.037C128.274 -169.27 128.274 -159.921 134.049 -154.155L216.866 -71.4672L299.683 11.2203C302.571 14.1034 306.356 15.5445 310.141 15.5445C313.926 15.5445 317.711 14.1034 320.598 11.2203L392.957 -61.0267L465.316 11.2194L548.133 93.9069L620.493 166.154L548.133 238.401L475.774 310.647L403.415 238.401L320.598 155.713C314.822 149.947 305.458 149.947 299.683 155.713C293.908 161.48 293.908 170.829 299.683 176.595L372.042 248.841L299.682 321.088C293.907 326.854 293.907 336.203 299.682 341.969L382.499 424.657L465.316 507.344C468.204 510.228 471.989 511.67 475.774 511.67C479.559 511.67 483.344 510.228 486.231 507.344C492.007 501.578 492.007 492.229 486.231 486.463L403.415 403.776L331.055 331.529L392.957 269.723L465.316 341.969L548.133 424.657L630.95 507.344C633.837 510.228 637.622 511.67 641.407 511.67C645.191 511.67 648.976 510.228 651.864 507.344C657.64 501.578 657.64 492.229 651.864 486.463L569.047 403.776L496.688 331.529L558.591 269.722L630.951 341.969L713.768 424.657L796.584 507.344C799.472 510.228 803.257 511.67 807.041 511.67C810.826 511.67 814.611 510.228 817.498 507.344C823.274 501.578 823.274 492.229 817.498 486.463L734.681 403.776L662.321 331.529L724.224 269.722L796.584 341.969L879.401 424.657C882.289 427.54 886.074 428.982 889.858 428.982C893.642 428.982 897.428 427.54 900.315 424.657C906.091 418.891 906.091 409.542 900.315 403.776L827.955 331.529L900.315 259.282C906.091 253.516 906.091 244.167 900.315 238.401L827.955 166.154L889.858 104.348L962.218 176.595L1045.04 259.283C1047.92 262.166 1051.71 263.608 1055.49 263.608C1059.28 263.608 1063.06 262.166 1065.95 259.283L1148.77 176.595L1231.58 93.9078C1237.36 88.1416 1237.36 78.792 1231.58 73.0258C1225.81 67.2596 1216.44 67.2596 1210.67 73.0258L1127.85 155.713L1055.49 227.96L993.59 166.154L1065.95 93.9069L1148.77 11.2194L1231.58 -71.4681C1237.36 -77.2342 1237.36 -86.5838 1231.58 -92.35C1225.81 -98.1154 1216.44 -98.1154 1210.67 -92.35ZM745.138 248.841L807.041 187.035L868.944 248.841L807.041 310.648L745.138 248.841ZM579.504 248.841L651.864 176.594L724.224 104.348L786.128 166.154L713.768 238.401L641.408 310.648L579.504 248.841ZM475.774 -143.714L537.676 -81.9086L475.774 -20.1031L413.871 -81.9086L475.774 -143.714ZM558.591 -61.0267L620.493 0.778872L558.591 62.5844L496.688 0.778872L558.591 -61.0267Z" fill="#E8ECF1"/>
<path d="M1210.67 -9.65841L1127.85 73.0291L1045.04 155.717C1039.26 161.483 1039.26 170.832 1045.04 176.599C1047.92 179.482 1051.71 180.923 1055.49 180.923C1059.28 180.923 1063.06 179.482 1065.95 176.599L1148.77 93.911L1231.58 11.2235C1237.36 5.45736 1237.36 -3.89223 1231.58 -9.65841C1225.81 -15.4238 1216.45 -15.4238 1210.67 -9.65841Z" fill="#E8ECF1"/>
<path d="M51.2315 176.597C54.1191 179.48 57.9041 180.921 61.6892 180.921C65.4743 180.921 69.2593 179.48 72.1469 176.597C77.9222 170.831 77.9222 161.481 72.1469 155.715L-10.67 73.0278C-16.4452 67.2616 -25.8094 67.2616 -31.5846 73.0278C-37.3598 78.794 -37.3598 88.1435 -31.5846 93.9097L51.2315 176.597Z" fill="#E8ECF1"/>
<path d="M51.2354 259.286C54.123 262.169 57.908 263.611 61.6931 263.611C65.4782 263.611 69.2632 262.169 72.1509 259.286L144.51 187.04L206.412 248.845L134.052 321.092C128.277 326.858 128.277 336.207 134.052 341.973C136.94 344.856 140.725 346.298 144.51 346.298C148.295 346.298 152.08 344.856 154.968 341.973L237.785 259.286C243.56 253.52 243.56 244.171 237.785 238.405L165.425 166.158L237.785 93.9108C243.56 88.1446 243.56 78.7951 237.785 73.0289C232.009 67.2627 222.645 67.2627 216.87 73.0289L144.51 145.276L82.6078 83.4703L154.967 11.2242C160.742 5.45799 160.742 -3.89159 154.967 -9.65778C149.192 -15.424 139.827 -15.424 134.052 -9.65778L61.6931 62.5883L-10.6661 -9.65778C-16.4413 -15.424 -25.8055 -15.424 -31.5807 -9.65778C-37.3559 -3.89159 -37.3559 5.45799 -31.5807 11.2242L51.2362 93.9117L123.595 166.158L61.6931 227.963L-10.6661 155.716C-16.4413 149.95 -25.8055 149.95 -31.5807 155.716C-37.3559 161.483 -37.3559 170.832 -31.5807 176.598L51.2354 259.286Z" fill="#E8ECF1"/>
<path d="M734.682 155.713C728.907 149.947 719.543 149.947 713.768 155.713L630.951 238.401C625.175 244.167 625.175 253.516 630.951 259.282C633.839 262.165 637.624 263.607 641.408 263.607C645.192 263.607 648.977 262.165 651.865 259.282L734.682 176.594C740.458 170.829 740.458 161.48 734.682 155.713Z" fill="#E8ECF1"/>
<path d="M1210.67 155.712L1127.85 238.4L1055.49 310.648L983.132 238.401L900.315 155.713C894.54 149.947 885.176 149.947 879.401 155.713C873.625 161.48 873.625 170.829 879.401 176.595L951.761 248.841L879.401 321.088C873.625 326.854 873.625 336.203 879.401 341.969L951.761 414.216L889.858 476.023L817.498 403.776L734.681 321.088C728.906 315.322 719.543 315.322 713.767 321.088C707.991 326.854 707.991 336.203 713.767 341.969L796.584 424.657L868.944 496.904L807.041 558.71L734.681 486.463L651.864 403.776L569.047 321.088C563.272 315.322 553.908 315.322 548.133 321.088C542.357 326.854 542.357 336.203 548.133 341.969L630.95 424.657L703.31 496.904L641.407 558.71L569.047 486.463L486.23 403.776L403.414 321.088C397.638 315.322 388.274 315.322 382.499 321.088C376.724 326.854 376.724 336.203 382.499 341.969L465.316 424.657L537.676 496.904L475.774 558.709L403.414 486.463L320.597 403.776L248.237 331.529L320.597 259.282C326.373 253.516 326.373 244.167 320.597 238.401L248.237 166.154L310.14 104.348L382.499 176.594L465.316 259.282C468.203 262.165 471.988 263.607 475.774 263.607C479.559 263.607 483.344 262.165 486.231 259.282L569.048 176.594C574.823 170.828 574.823 161.479 569.048 155.712L486.231 73.025L403.414 -9.66253C397.639 -15.4287 388.275 -15.4287 382.5 -9.66253L310.14 62.5844L237.781 -9.66168L154.964 -92.3492L72.1468 -175.037C66.3716 -180.803 57.0074 -180.803 51.2322 -175.037L-31.5847 -92.3492C-37.36 -86.583 -37.36 -77.2334 -31.5847 -71.4672L51.2322 11.2203C54.1198 14.1034 57.9048 15.5445 61.6899 15.5445C65.475 15.5445 69.26 14.1034 72.1477 11.2203L144.506 -61.0267L206.408 0.778872L134.049 73.025C128.274 78.7912 128.274 88.1408 134.049 93.9069C136.937 96.79 140.722 98.2312 144.507 98.2312C148.292 98.2312 152.077 96.79 154.965 93.9069L227.323 21.6608L289.225 83.4664L216.866 155.712C211.091 161.479 211.091 170.828 216.866 176.594L289.225 248.841L216.865 321.088L144.506 393.334L82.6037 331.529L154.964 259.282C160.739 253.516 160.739 244.167 154.964 238.401C149.188 232.635 139.824 232.635 134.049 238.401L61.6891 310.647L-10.6701 238.401C-16.4453 232.635 -25.8095 232.635 -31.5847 238.401C-37.36 244.167 -37.36 253.516 -31.5847 259.282L40.7744 331.529L-31.5856 403.776C-37.3608 409.542 -37.3608 418.891 -31.5856 424.657C-28.698 427.54 -24.9129 428.982 -21.1278 428.982C-17.3428 428.982 -13.5577 427.54 -10.6701 424.657L61.6891 352.411L123.591 414.216L51.2313 486.463L-31.5856 569.151C-37.3608 574.917 -37.3608 584.266 -31.5856 590.032C-28.698 592.915 -24.9129 594.357 -21.1278 594.357C-17.3428 594.357 -13.5577 592.915 -10.6701 590.032L61.6891 517.786L134.048 590.032C136.936 592.915 140.721 594.357 144.506 594.357C148.291 594.357 152.076 592.915 154.964 590.032L237.781 507.344C243.556 501.578 243.556 492.229 237.781 486.463C232.005 480.697 222.641 480.697 216.866 486.463L144.506 558.709L82.6037 496.904L154.964 424.657L227.323 352.411L299.682 424.657L372.042 496.904L299.682 569.151C293.907 574.917 293.907 584.266 299.682 590.032C302.57 592.915 306.355 594.357 310.14 594.357C313.925 594.357 317.71 592.915 320.597 590.032L392.957 517.786L465.316 590.032C468.203 592.915 471.988 594.357 475.774 594.357C479.559 594.357 483.344 592.915 486.231 590.032L558.59 517.785L630.95 590.032C633.838 592.915 637.623 594.357 641.407 594.357C645.192 594.357 648.977 592.915 651.864 590.032L724.224 517.785L796.584 590.032C799.472 592.915 803.257 594.357 807.041 594.357C810.825 594.357 814.61 592.915 817.498 590.032L889.858 517.785L962.218 590.032C965.106 592.915 968.891 594.357 972.675 594.357C976.459 594.357 980.244 592.915 983.132 590.032C988.908 584.266 988.908 574.917 983.132 569.151L910.772 496.904L972.675 435.097L1045.03 507.344L1127.85 590.032C1130.74 592.915 1134.52 594.357 1138.31 594.357C1142.09 594.357 1145.88 592.915 1148.77 590.032C1154.54 584.266 1154.54 574.917 1148.77 569.151L1076.41 496.904L1148.77 424.657C1154.54 418.891 1154.54 409.542 1148.77 403.776L1076.41 331.529L1148.77 259.282L1231.58 176.594C1237.36 170.828 1237.36 161.479 1231.58 155.712C1225.81 149.947 1216.44 149.947 1210.67 155.712ZM983.132 403.776L910.772 331.529L972.675 269.722L1045.03 341.969L1117.39 414.216L1055.49 476.023L983.132 403.776ZM392.957 21.6608L454.859 83.4664L392.957 145.272L331.054 83.4664L392.957 21.6608ZM475.774 227.959L413.871 166.154L475.774 104.348L537.676 166.154L475.774 227.959ZM61.6891 -20.1031L-0.213192 -81.9086L61.6891 -143.714L123.591 -81.9086L61.6891 -20.1031Z" fill="#E8ECF1"/>
<path d="M1231.58 238.405C1225.81 232.639 1216.44 232.639 1210.67 238.405L1127.85 321.092C1122.08 326.858 1122.08 336.207 1127.85 341.973L1200.21 414.22L1127.85 486.467C1122.08 492.233 1122.08 501.582 1127.85 507.348L1210.67 590.036C1213.56 592.919 1217.34 594.361 1221.13 594.361C1224.91 594.361 1228.7 592.919 1231.58 590.036C1237.36 584.27 1237.36 574.921 1231.58 569.155L1159.22 496.908L1231.58 424.661C1237.36 418.895 1237.36 409.546 1231.58 403.78L1159.22 331.533L1231.58 259.286C1237.36 253.52 1237.36 244.171 1231.58 238.405Z" fill="#E8ECF1"/>
<path d="M1065.95 403.78L983.135 321.092C977.359 315.326 967.996 315.326 962.221 321.092C956.445 326.858 956.445 336.207 962.221 341.973L1045.04 424.661C1047.93 427.544 1051.71 428.986 1055.49 428.986C1059.28 428.986 1063.06 427.544 1065.95 424.661C1071.73 418.895 1071.73 409.546 1065.95 403.78Z" fill="#E8ECF1"/>
<path d="M-21.1248 511.673C-17.3397 511.673 -13.5546 510.231 -10.667 507.348L72.1499 424.661C77.9251 418.895 77.9251 409.546 72.1499 403.78C66.3747 398.014 57.0104 398.014 51.2352 403.78L-31.5817 486.467C-37.3569 492.233 -37.3569 501.582 -31.5817 507.348C-28.6949 510.231 -24.9098 511.673 -21.1248 511.673Z" fill="#E8ECF1"/>
<path d="M320.598 486.463L237.781 403.776C232.006 398.01 222.641 398.01 216.866 403.776L134.049 486.463C128.274 492.229 128.274 501.578 134.049 507.344C136.937 510.228 140.722 511.67 144.507 511.67C148.292 511.67 152.077 510.228 154.965 507.344L227.323 435.098L289.225 496.904L216.865 569.151C211.09 574.917 211.09 584.266 216.865 590.032C219.753 592.915 223.538 594.357 227.323 594.357C231.108 594.357 234.893 592.915 237.781 590.032L320.598 507.344C326.372 501.578 326.372 492.229 320.598 486.463Z" fill="#E8ECF1"/>
</g>
</g>
<defs>
<clipPath id="clip0_2591_4224">
<rect width="1200" height="415" fill="white"/>
</clipPath>
</defs>
</svg>
