<svg width="88" height="88" viewBox="0 0 88 88" fill="none" xmlns="http://www.w3.org/2000/svg">
<rect width="88" height="88" rx="44" fill="white"/>
<g clip-path="url(#clip0_2393_2098)">
<path d="M44 0C19.7369 0 0 19.7388 0 44C0 68.2612 19.7369 88 44 88C68.2631 88 88 68.2612 88 44C88 19.7388 68.2631 0 44 0ZM61.4919 45.5415L35.8253 62.0415C35.5245 62.2366 35.1771 62.3334 34.8334 62.3334C34.5326 62.3334 34.2282 62.2581 33.9561 62.1096C33.3652 61.7873 33 61.1713 33 60.5V27.5C33 26.8287 33.3652 26.2127 33.9561 25.8904C34.5362 25.5717 35.2631 25.5913 35.8253 25.9585L61.4919 42.4585C62.0147 42.795 62.3334 43.377 62.3334 44C62.3334 44.623 62.0147 45.2048 61.4919 45.5415Z" fill="#ED1D24"/>
</g>
<defs>
<clipPath id="clip0_2393_2098">
<rect width="88" height="88" fill="white"/>
</clipPath>
</defs>
</svg>
