<svg width="110" height="110" viewBox="0 0 110 110" fill="none" xmlns="http://www.w3.org/2000/svg">
<rect width="110" height="110" rx="55" fill="#ED1D24"/>
<path d="M81.6074 57.7143C80.4732 62.023 75.114 65.0678 64.395 71.1575C54.033 77.0441 48.8522 79.9878 44.677 78.8046C42.9508 78.3153 41.378 77.3865 40.1096 76.1067C37.0417 73.0113 37.0417 67.0075 37.0417 55C37.0417 42.9925 37.0417 36.9887 40.1096 33.8934C41.378 32.6137 42.9508 31.6847 44.677 31.1955C48.8522 30.0124 54.033 32.9558 64.395 38.8426C75.114 44.9322 80.4732 47.977 81.6074 52.2858C82.0754 54.0645 82.0754 55.9356 81.6074 57.7143Z" fill="white"/>
</svg>
