<svg width="276" height="276" viewBox="0 0 276 276" fill="none" xmlns="http://www.w3.org/2000/svg">
<path fill-rule="evenodd" clip-rule="evenodd" d="M1.54081 0H274.459C275.313 0 276 0.68614 276 1.53836V274.462C276 275.314 275.313 276 274.459 276H1.54081C0.687186 276 0 275.314 0 274.462V1.53836C0 0.68614 0.687186 0 1.54081 0Z" fill="#007DBC"/>
<path d="M100.12 47.5211H90.1704V24.2505H93.5101V44.1868H100.12V47.5211Z" fill="white"/>
<path d="M101.205 47.5211V24.2505H104.51V47.5211H101.205Z" fill="white"/>
<path d="M107.338 47.5211V24.2505H117.288V27.3764H110.643V34.3576H116.453V37.4835H110.643V47.5211H107.338Z" fill="white"/>
<path d="M128.413 44.1868V47.5211H118.429V24.2505H128.413V27.3069H121.734V34.184H127.578V37.3446H121.734V44.1868H128.413Z" fill="white"/>
<path d="M95.6324 56.3418C96.3513 56.3418 97.0239 56.4923 97.6501 56.7933C98.3459 57.1175 99.0533 57.6385 99.7723 58.3563C100.538 59.0973 100.92 60.255 100.92 61.8295V63.6009C100.92 65.3838 100.213 66.6342 98.7982 67.352C100.213 68.1856 100.92 69.4822 100.92 71.2419V73.951C100.92 75.595 100.387 76.9496 99.32 78.0148C98.2763 79.0799 96.9312 79.6125 95.2845 79.6125H90.1357V56.3418H95.6324ZM97.6154 63.2535V61.8295C97.6154 61.1117 97.4067 60.5444 96.9892 60.1276C96.5717 59.6877 96.015 59.4677 95.3193 59.4677H93.4407V65.8932H95.4236C96.189 65.8932 96.7457 65.6616 97.0936 65.1985C97.4414 64.7123 97.6154 64.0639 97.6154 63.2535ZM97.6154 73.951V71.2419C97.6154 70.501 97.4067 69.9222 96.9892 69.5054C96.5949 69.0655 96.0382 68.8455 95.3193 68.8455H93.4407V76.3129H95.3541C96.0267 76.3129 96.5717 76.0929 96.9892 75.6529C97.4067 75.1898 97.6154 74.6225 97.6154 73.951Z" fill="white"/>
<path d="M114.185 76.2771V79.6115H104.201V56.3408H114.185V59.3973H107.506V66.2743H113.35V69.4349H107.506V76.2771H114.185Z" fill="white"/>
<path d="M125.478 79.6115H115.529V56.3408H118.869V76.2771H125.478V79.6115Z" fill="white"/>
<path d="M126.851 58.5289C127.384 57.7879 128.057 57.209 128.868 56.7923C129.703 56.3523 130.562 56.1323 131.443 56.1323C132.301 56.1323 133.101 56.306 133.843 56.6534C134.609 57.0007 135.246 57.4753 135.757 58.0774C136.267 58.6794 136.615 59.3046 136.8 59.9529C136.986 60.5781 137.079 61.2611 137.079 62.0021V73.8458C137.079 74.5405 137.009 75.1541 136.87 75.6866C136.754 76.2192 136.476 76.8097 136.035 77.458C135.618 78.1063 135.003 78.6621 134.191 79.1252C133.403 79.5883 132.521 79.8198 131.547 79.8198C130.991 79.8198 130.457 79.7504 129.947 79.6114C129.437 79.4494 128.961 79.241 128.521 78.9863C128.08 78.7315 127.686 78.4421 127.338 78.1179C127.013 77.7938 126.758 77.4579 126.572 77.1106C126.224 76.3928 126.016 75.814 125.946 75.3741C125.877 74.9341 125.842 74.4247 125.842 73.8458V62.0021C125.842 61.3074 125.911 60.6939 126.051 60.1613C126.213 59.6056 126.48 59.0615 126.851 58.5289ZM133.321 60.3697C132.881 59.7214 132.278 59.3972 131.512 59.3972C131.118 59.3972 130.724 59.513 130.33 59.7445C129.958 59.9529 129.692 60.1961 129.529 60.4739C129.39 60.7518 129.297 61.0296 129.251 61.3075C129.205 61.5854 129.182 61.8168 129.182 62.0021V73.8458C129.182 73.9616 129.182 74.0889 129.182 74.2279C129.182 74.3436 129.193 74.4709 129.216 74.6099C129.24 74.8414 129.425 75.2235 129.773 75.7561C130.121 76.2424 130.701 76.4854 131.513 76.4854C131.93 76.4854 132.301 76.3929 132.626 76.2077C132.974 75.9993 133.217 75.7677 133.356 75.513C133.519 75.2351 133.623 74.9805 133.669 74.7489C133.716 74.5174 133.739 74.2163 133.739 73.8458V62.0021C133.739 61.539 133.716 61.2148 133.669 61.0296C133.646 60.8444 133.53 60.6244 133.321 60.3697Z" fill="white"/>
<path d="M150.72 79.6115L147.972 65.4407L145.293 79.6115H142.197L138.822 56.3408H142.371L144.041 70.4074L146.719 56.3408H149.189L151.938 70.4074L153.608 56.3408H157.121L153.851 79.6115H150.72Z" fill="white"/>
<path d="M173.359 79.6115L170.611 65.4407L167.932 79.6115H164.836L161.461 56.3408H165.01L166.68 70.4074L169.359 56.3408H171.829L174.577 70.4074L176.247 56.3408H179.76L176.49 79.6115H173.359Z" fill="white"/>
<path d="M179.017 79.6115L184.235 56.3408H187.123L192.341 79.6115H188.758L187.819 74.61H183.505L182.531 79.6115H179.017ZM184.096 71.5189H187.227L185.662 63.0441L184.096 71.5189Z" fill="white"/>
<path d="M195.127 79.6115V59.432H191.196V56.3408H202.433V59.432H198.432V79.6115H195.127Z" fill="white"/>
<path d="M214.253 76.2771V79.6115H204.269V56.3408H214.253V59.3973H207.573V66.2743H213.418V69.4349H207.573V76.2771H214.253Z" fill="white"/>
<path d="M215.528 79.6115V56.3408H221.373C222.904 56.3408 224.191 56.8734 225.234 57.9386C226.301 59.0037 226.835 60.3119 226.835 61.8633V64.0167C226.835 66.1701 225.919 67.8141 224.086 68.9486L227.635 79.6115H224.086L220.955 69.6433H218.868V79.6115H215.528ZM222.938 65.9618C223.147 65.707 223.286 65.4176 223.356 65.0934C223.449 64.7693 223.495 64.4104 223.495 64.0167V61.8633C223.495 61.1455 223.298 60.5666 222.904 60.1266C222.509 59.6635 221.953 59.432 221.234 59.432H218.868V66.6911H221.199C221.895 66.6911 222.475 66.448 222.938 65.9618Z" fill="white"/>
<path d="M27.3094 79.9016V32.5292L19.3179 38.5131V30.036L27.3094 24.2183H35.2177V79.9016H27.3094Z" fill="white"/>
<path d="M56.3032 79.9016V71.4245H40.4033V63.9446L51.9744 24.2183H60.3822L48.4781 63.9446H56.3032V48.0708H64.2947V63.9446H68.2072V71.4245H64.2947V79.9016H56.3032Z" fill="white"/>
<path d="M154.112 169.413C135.285 169.85 116.825 179.777 98.5068 193.34C90.4412 179.508 79.8057 169.668 62.8672 169.616C79.0564 193.676 75.8066 215.106 62.8672 235.223C79.8057 235.171 90.4412 225.33 98.5068 211.499C135.144 238.624 172.343 251.203 211.923 202.421C192.133 178.03 172.939 168.976 154.112 169.413ZM172.341 188.39C173.527 188.39 174.702 188.623 175.797 189.076C176.893 189.529 177.889 190.193 178.728 191.03C179.566 191.868 180.231 192.862 180.685 193.956C181.139 195.05 181.372 196.222 181.372 197.406C181.372 199.797 180.42 202.09 178.726 203.78C177.033 205.47 174.736 206.419 172.341 206.419C169.947 206.418 167.651 205.469 165.958 203.778C164.266 202.088 163.314 199.796 163.314 197.406C163.313 195.015 164.264 192.722 165.957 191.032C167.65 189.341 169.947 188.39 172.341 188.39ZM210.532 138.02L211.182 145.433C197.128 155.087 186.69 151.251 177.305 143.487C165.708 152.03 152.937 154.572 137.395 142.931C125.926 149.941 114.184 156.059 96.6503 143.209C87.5002 150.334 78.3182 157.352 63.6088 145.896L63.2375 138.112C76.7539 146.015 87.3886 141.509 97.4856 133.479C110.882 142.53 124.121 145.183 137.024 134.035C151.988 147.733 164.559 141.878 176.841 133.665C185.84 139.418 194.13 146.792 210.532 138.02ZM210.532 115.225L211.182 122.638C197.128 132.292 186.69 128.457 177.305 120.692C165.708 129.235 152.937 131.777 137.395 120.136C125.926 127.146 114.184 133.264 96.6503 120.414C87.5002 127.539 78.3182 134.557 63.6088 123.101L63.2375 115.318C76.7539 123.22 87.3886 118.714 97.4856 110.685C110.882 119.735 124.121 122.389 137.024 111.241C151.988 124.938 164.559 119.083 176.841 110.87C185.84 116.623 194.13 123.998 210.532 115.225Z" fill="white"/>
</svg>
