<svg width="276" height="276" viewBox="0 0 276 276" fill="none" xmlns="http://www.w3.org/2000/svg">
<path fill-rule="evenodd" clip-rule="evenodd" d="M1.54082 0H274.459C275.313 0 276 0.68614 276 1.53836V274.462C276 275.314 275.313 276 274.459 276H1.54082C0.687208 276 0 275.314 0 274.462V1.53836C0 0.68614 0.687208 0 1.54082 0Z" fill="#48773E"/>
<path d="M96.7748 41.6517C96.7748 42.3927 96.7285 43.0295 96.6357 43.562C96.5661 44.0946 96.3342 44.6735 95.9399 45.2987C95.7312 45.6228 95.4645 45.9354 95.1398 46.2364C94.8383 46.5142 94.4904 46.7689 94.0961 47.0004C93.725 47.2088 93.3191 47.3826 92.8785 47.5215C92.4378 47.6604 92.0087 47.7299 91.5913 47.7299C90.5476 47.7299 89.5967 47.5099 88.7386 47.0699C87.9036 46.63 87.289 46.0743 86.8948 45.4028C86.5005 44.7313 86.2454 44.1061 86.1294 43.5273C86.0366 42.9484 85.9902 42.3232 85.9902 41.6517V29.6691C85.9902 29.0208 86.0482 28.4419 86.1642 27.9324C86.3033 27.3999 86.5816 26.8326 86.9991 26.2305C87.4166 25.6285 88.008 25.1192 88.7734 24.7024C89.5387 24.2625 90.3389 24.0425 91.1738 24.0425C92.7741 24.0425 94.1077 24.575 95.1745 25.6401C96.2414 26.6821 96.7748 28.0251 96.7748 29.6691V30.9194H93.4699V29.6691C93.4699 29.0208 93.2843 28.4766 92.9133 28.0367C92.5654 27.5967 92.0435 27.3768 91.3477 27.3768C90.6983 27.3768 90.1881 27.5967 89.817 28.0367C89.4691 28.4766 89.2952 29.0208 89.2952 29.6691V42.5548C89.3416 42.9021 89.5039 43.2957 89.7822 43.7357C90.1069 44.1988 90.6404 44.4303 91.3825 44.4303C92.1711 44.4303 92.6929 44.2219 92.948 43.8052C93.2031 43.3884 93.3539 43.0873 93.4003 42.9021C93.4467 42.6937 93.4699 42.4158 93.4699 42.0685V40.8877H96.7748L96.7748 41.6517Z" fill="white"/>
<path d="M109.08 47.5216H99.1299V24.251H102.47V44.1873H109.08V47.5216Z" fill="white"/>
<path d="M109.846 47.5216V24.251H113.151V47.5216H109.846Z" fill="white"/>
<path d="M127.714 47.5216V33.3508L124.374 43.2842H122.704L119.399 33.3508V47.5216H116.06V24.251H119.191L123.609 36.6504L127.957 24.251H131.019V47.5216H127.714Z" fill="white"/>
<path d="M131.641 47.5216L136.859 24.251H139.746L144.965 47.5216H141.382L140.442 42.5202H136.128L135.154 47.5216H131.641ZM136.72 39.429H139.851L138.285 30.9543L136.72 39.429Z" fill="white"/>
<path d="M147.989 47.5216V27.3421H144.058V24.251H155.295V27.3421H151.294V47.5216H147.989Z" fill="white"/>
<path d="M166.877 44.1873V47.5216H156.893V24.251H166.877V27.3074H160.198V34.1844H166.042V37.3451H160.198V44.1873H166.877Z" fill="white"/>
<path d="M84.584 79.612L89.8023 56.3413H92.6898L97.9082 79.612H94.3249L93.3856 74.6105H89.0718L88.0977 79.612H84.584ZM89.6632 71.5193H92.7942L91.2287 63.0446L89.6632 71.5193Z" fill="white"/>
<path d="M110.184 73.743C110.184 74.484 110.138 75.1208 110.045 75.6533C109.975 76.1859 109.743 76.7648 109.349 77.39C109.14 77.7141 108.874 78.0268 108.549 78.3278C108.247 78.6057 107.9 78.8603 107.505 79.0919C107.134 79.3003 106.728 79.474 106.288 79.6129C105.847 79.7518 105.418 79.8213 105 79.8213C103.957 79.8213 103.006 79.6013 102.148 79.1614C101.313 78.7214 100.698 78.1657 100.304 77.4942C99.9097 76.8227 99.6545 76.1975 99.5386 75.6186C99.4458 75.0397 99.3994 74.4145 99.3994 73.743V61.7604C99.3994 61.1121 99.4574 60.5333 99.5734 60.0239C99.7125 59.4913 99.9908 58.924 100.408 58.322C100.826 57.7199 101.417 57.2105 102.183 56.7937C102.948 56.3538 103.748 56.1338 104.583 56.1338C106.183 56.1338 107.517 56.6664 108.584 57.7315C109.651 58.7735 110.184 60.1164 110.184 61.7604V63.0109H106.879V61.7604C106.879 61.1121 106.694 60.5679 106.322 60.128C105.975 59.6881 105.453 59.4681 104.757 59.4681C104.108 59.4681 103.597 59.6881 103.226 60.128C102.878 60.5679 102.704 61.1121 102.704 61.7604V74.6461C102.751 74.9934 102.913 75.3871 103.191 75.8271C103.516 76.2902 104.05 76.5216 104.792 76.5216C105.58 76.5216 106.102 76.3133 106.357 75.8965C106.612 75.4797 106.763 75.1786 106.809 74.9934C106.856 74.785 106.879 74.5071 106.879 74.1598V72.979H110.184L110.184 73.743Z" fill="white"/>
<path d="M115.74 79.612V59.4324H111.809V56.3413H123.046V59.4324H119.045V79.612H115.74Z" fill="white"/>
<path d="M124.723 79.612V56.3413H128.028V79.612H124.723Z" fill="white"/>
<path d="M131.623 58.5304C132.157 57.7894 132.829 57.2105 133.641 56.7937C134.476 56.3538 135.334 56.1338 136.215 56.1338C137.073 56.1338 137.874 56.3075 138.616 56.6548C139.381 57.0022 140.019 57.4768 140.529 58.0788C141.039 58.6809 141.387 59.306 141.573 59.9544C141.758 60.5795 141.851 61.2626 141.851 62.0035V73.8473C141.851 74.5419 141.782 75.1555 141.642 75.6881C141.526 76.2206 141.248 76.8111 140.807 77.4595C140.39 78.1078 139.775 78.6635 138.964 79.1266C138.175 79.5897 137.294 79.8213 136.32 79.8213C135.763 79.8213 135.23 79.7518 134.719 79.6129C134.209 79.4508 133.734 79.2424 133.293 78.9877C132.852 78.733 132.458 78.4436 132.11 78.1194C131.785 77.7952 131.53 77.4594 131.345 77.1121C130.997 76.3943 130.788 75.8155 130.719 75.3755C130.649 74.9356 130.614 74.4262 130.614 73.8473V62.0035C130.614 61.3089 130.684 60.6953 130.823 60.1628C130.985 59.607 131.252 59.0629 131.623 58.5304ZM138.094 60.3711C137.653 59.7228 137.05 59.3987 136.285 59.3987C135.891 59.3987 135.496 59.5144 135.102 59.746C134.731 59.9544 134.464 60.1975 134.302 60.4754C134.163 60.7533 134.07 61.0311 134.024 61.309C133.977 61.5868 133.954 61.8183 133.954 62.0035V73.8473C133.954 73.963 133.954 74.0904 133.954 74.2293C133.954 74.3451 133.966 74.4724 133.989 74.6114C134.012 74.8429 134.198 75.225 134.546 75.7576C134.893 76.2438 135.473 76.4869 136.285 76.4869C136.702 76.4869 137.074 76.3944 137.398 76.2091C137.746 76.0007 137.99 75.7691 138.129 75.5144C138.291 75.2366 138.396 74.9819 138.442 74.7504C138.488 74.5188 138.511 74.2178 138.511 73.8473V62.0035C138.511 61.5404 138.488 61.2163 138.442 61.0311C138.419 60.8458 138.303 60.6259 138.094 60.3711Z" fill="white"/>
<path d="M153.24 79.612L148.056 65.476V79.612H144.716V56.3413H147.882L153.031 70.4426V56.3413H156.371V79.612H153.24Z" fill="white"/>
<path d="M27.0345 79.9021V32.5297L19.043 38.5136V30.0365L27.0345 24.2188H34.9428V79.9021H27.0345Z" fill="white"/>
<path d="M64.8819 67.1034V68.1007C64.8819 68.4886 64.8541 68.9318 64.7986 69.4305C64.7986 69.8737 64.7153 70.5386 64.5489 71.4251C63.7719 74.0846 62.3012 76.2454 60.1369 77.9076C58.028 79.5698 55.5584 80.4009 52.7281 80.4009C50.5082 80.4009 48.3993 79.736 46.4014 78.4062C44.4035 77.0211 43.1271 75.6636 42.5721 74.3339C42.2392 73.6136 41.9617 72.9764 41.7397 72.4224C41.5732 71.8683 41.4345 71.342 41.3235 70.8433C41.2125 70.3447 41.1292 69.8183 41.0737 69.2642C41.0737 68.6547 41.0737 67.9345 41.0737 67.1034V63.8621H49.0653V68.4331C49.1763 69.1534 49.4815 69.9568 49.981 70.8433C50.5359 71.8407 51.5349 72.3392 52.9778 72.3392C54.4207 72.3392 55.4474 71.8407 56.0579 70.8433C56.6683 69.846 56.9736 68.5994 56.9736 67.1034V58.5432C56.9181 57.4904 56.6961 56.687 56.3076 56.133C55.9746 55.5789 55.5584 55.191 55.0589 54.9694C54.5595 54.6923 54.0322 54.5538 53.4773 54.5538C52.9223 54.4984 52.4228 54.4707 51.9788 54.4707H50.5637V47.4064H51.9789C55.3087 47.4064 56.9736 45.8551 56.9736 42.7523V36.1035C56.9736 35.4386 56.9181 34.8846 56.8071 34.4414C56.8071 34.2752 56.7238 34.0258 56.5574 33.6933C56.3909 33.3609 56.1411 33.0284 55.8081 32.696C55.5307 32.3635 55.1699 32.0865 54.726 31.8649C54.282 31.6433 53.7548 31.5325 53.1443 31.5325C51.7569 31.5325 50.7302 31.9757 50.0642 32.8622C49.3983 33.6933 49.0653 34.7738 49.0653 36.1035V40.1759H41.0737V36.1035C41.0737 32.6129 42.2114 29.6764 44.4868 27.2939C46.7067 24.9114 49.5925 23.7202 53.1443 23.7202C55.0867 23.7202 56.9458 24.2189 58.7217 25.2162C60.5531 26.2135 61.885 27.377 62.7175 28.7068C63.6054 30.0365 64.1882 31.2832 64.4656 32.4467C64.7431 33.6102 64.8819 34.8292 64.8819 36.1035V42.5861C64.8819 46.1875 63.3002 48.9301 60.1369 50.8139C61.9128 52.0882 63.1337 53.3626 63.7997 54.637C64.5211 55.8559 64.8819 57.5181 64.8819 59.6235L64.8819 67.1034Z" fill="white"/>
<path d="M143.084 122.82C102.858 122.445 62.3648 140.762 38.79 175.361C84.5108 242.464 193.868 248.329 241.496 175.361C218.426 140.018 180.872 123.172 143.084 122.82ZM140.769 132.861C142.907 132.861 145.003 132.984 145.942 133.231C146.759 133.446 148.265 133.76 149.287 133.925C151.551 134.292 154.882 135.29 156.218 136.004C156.76 136.294 157.486 136.535 157.826 136.535C158.167 136.535 158.696 136.785 159.002 137.091C159.309 137.397 159.882 137.647 160.276 137.647C160.67 137.647 160.993 137.815 160.993 138.025C160.993 138.234 161.416 138.566 161.932 138.762C162.449 138.958 163.076 139.294 163.326 139.507C163.577 139.721 164.669 140.545 165.758 141.339C167.719 142.77 172.885 147.498 172.885 147.862C172.885 147.966 173.72 149.111 174.742 150.41C175.764 151.708 176.602 152.944 176.602 153.157C176.602 153.37 176.809 153.771 177.064 154.044C178.482 155.558 181.432 163.289 181.432 165.495C181.432 168.053 179.217 168.893 177.585 166.956C175.188 164.112 172.878 167.221 174.964 170.481C175.332 171.056 175.338 171.349 174.996 171.793C174.434 172.524 171.577 174.006 170.727 174.006C169.717 174.006 168.18 176.028 167.909 177.716C167.63 179.459 168.164 181.86 168.983 182.539C169.499 182.966 169.788 184.763 169.34 184.763C169.042 184.763 166.96 183.249 165.554 182.008C164.447 181.031 163.87 180.041 162.285 176.415C162.018 175.803 161.705 174.874 161.59 174.347C161.227 172.677 159.722 171.407 158.107 171.407C155.853 171.407 155.266 172.064 155.209 174.653C155.175 176.182 154.941 177.167 154.452 177.836C153.605 178.995 153.521 179.009 152.519 178.178C150.738 176.7 150.043 176.23 149.629 176.23C149.389 176.23 148.984 175.98 148.73 175.674C148.476 175.368 147.829 175.108 147.292 175.096C145.355 175.053 143.035 173.556 142.142 171.775C141.682 170.858 141.303 169.939 141.301 169.732C141.297 169.401 137.906 166.956 137.45 166.956C137.353 166.956 136.405 166.383 135.342 165.684C133.144 164.239 132.379 164.307 132.379 165.949C132.379 166.889 132.898 167.588 135.327 169.921C138.57 173.034 139.202 174.314 138.097 175.532C137.455 176.24 135.303 177.342 134.559 177.342C134.377 177.342 132.981 176.078 131.458 174.533C129.356 172.399 128.485 171.752 127.84 171.844C127.217 171.932 126.957 172.247 126.868 173.028C126.801 173.614 126.928 174.273 127.148 174.493C127.369 174.713 127.549 175.188 127.549 175.547C127.549 176.721 130.741 180.682 131.687 180.682C131.86 180.682 132.431 181.053 132.954 181.507C134.208 182.595 133.933 183.65 131.851 185.759C130.293 187.336 130.248 187.448 130.049 190.348C129.937 191.984 129.681 193.524 129.481 193.772C129.282 194.019 129.013 194.726 128.881 195.338C128.749 195.95 128.144 197.017 127.538 197.707C126.904 198.43 126.435 199.383 126.435 199.953C126.435 200.499 126.189 201.269 125.889 201.665C125.589 202.061 125.335 202.587 125.328 202.832C125.313 203.403 123.682 205.168 123.17 205.168C122.955 205.168 122.715 205.356 122.638 205.586C122.561 205.816 121.659 206.084 120.633 206.182C118.941 206.344 118.711 206.274 118.143 205.408V205.404C117.72 204.761 117.513 203.678 117.513 202.083C117.513 200.084 117.37 199.548 116.578 198.638C116.061 198.045 115.557 197.185 115.46 196.726C115.363 196.267 115.195 195.462 115.085 194.938C114.951 194.296 114.469 193.814 113.6 193.452C112.892 193.157 112.311 192.764 112.311 192.58C112.311 192.395 111.635 191.538 110.808 190.679C109.36 189.174 109.241 189.126 107.583 189.353C106.637 189.482 105.587 189.84 105.25 190.145C104.912 190.45 104.063 190.695 103.364 190.69C102.285 190.683 101.994 190.482 101.442 189.374C101.085 188.657 100.791 187.75 100.791 187.358C100.791 186.965 100.555 186.094 100.267 185.424C99.5817 183.832 98.9143 179.501 98.6904 175.209C98.5157 171.858 98.5383 171.735 99.6514 170.088C100.279 169.161 100.791 168.257 100.791 168.079C100.791 167.707 103.391 166.747 103.95 166.912C104.155 166.972 105.268 167.172 106.422 167.359C107.576 167.546 108.994 167.949 109.578 168.253C110.161 168.557 110.891 168.812 111.198 168.82C111.504 168.827 112.079 169.076 112.475 169.376C112.872 169.676 113.573 169.921 114.033 169.921C114.493 169.921 114.958 170.068 115.067 170.245C115.176 170.421 115.884 170.664 116.639 170.786C119.044 171.176 122.328 169.137 122.34 167.246C122.347 165.836 121.031 164.728 119.348 164.728C118.582 164.728 117.771 164.483 117.513 164.172C117.259 163.866 116.458 163.616 115.729 163.616C114.901 163.616 114.098 163.326 113.585 162.846C112.5 161.827 109.705 161.684 108.697 162.595C108.302 162.951 107.607 163.245 107.154 163.245C106.7 163.245 105.878 163.475 105.326 163.754C104.774 164.034 103.516 164.378 102.531 164.521L100.736 164.783L100.856 163.736C100.963 162.802 101.159 162.664 102.651 162.457C105.91 162.004 107.656 161.258 107.791 160.262C107.898 159.469 108.288 159.017 110.269 157.387C110.474 157.219 111.536 156.789 112.632 156.431C114.494 155.824 114.781 155.822 117.025 156.384C119.942 157.114 121.266 156.873 122.886 155.323C123.558 154.68 124.547 153.778 125.084 153.321C126.207 152.364 126.28 152.016 125.499 151.369C124.561 150.592 122.36 151.191 121.102 152.565C120.142 153.614 119.75 153.778 118.285 153.757C116.242 153.727 113.514 152.604 113.218 151.671C112.691 150.013 115.664 148.59 120.338 148.262C122.336 148.122 124.15 147.865 124.367 147.688C124.915 147.241 129.783 146.758 129.762 147.154C129.752 147.33 129.041 147.822 128.182 148.244C126.801 148.922 126.62 149.158 126.62 150.279C126.62 151.207 126.799 151.584 127.29 151.678C128.076 151.829 130.963 150.55 132.576 149.338C133.195 148.872 134.018 148.427 134.403 148.353C134.788 148.278 135.266 147.729 135.466 147.132C135.792 146.153 135.706 145.934 134.57 144.933C132.801 143.374 132.014 142.096 132.011 140.776C132.006 138.451 131.5 138.225 125.812 137.988C122.985 137.871 121.028 137.744 121.462 137.709C121.897 137.673 122.464 137.393 122.718 137.087C122.973 136.781 123.462 136.531 123.807 136.531C124.151 136.531 124.757 136.286 125.153 135.986C125.55 135.686 126.184 135.436 126.562 135.43C126.94 135.422 127.778 135.174 128.422 134.874C129.066 134.574 130.512 134.165 131.636 133.965C132.76 133.766 134.433 133.433 135.353 133.228C136.455 132.981 138.632 132.86 140.769 132.861ZM111.092 145.064C112.444 145.064 112.217 146.674 110.699 147.829C109.288 148.904 107.852 149.083 107.852 148.186C107.852 147.268 110.139 145.064 111.092 145.064ZM107.659 152.158C107.864 152.141 108.067 152.144 108.264 152.172C109.073 152.286 108.903 152.538 106.425 154.898C103.494 157.691 103.025 158.012 103.015 157.245C103.013 156.973 103.389 155.987 103.852 155.054C104.656 153.435 106.225 152.274 107.659 152.158ZM181.144 170.717C181.337 170.763 181.596 170.973 181.931 171.342C182.784 172.284 182.857 181.423 182.011 181.423C181.716 181.423 181.345 181.213 181.185 180.958C179.517 178.304 179.054 175.199 180.118 173.795C180.418 173.399 180.668 172.532 180.675 171.869C180.683 171.016 180.823 170.64 181.144 170.717ZM150.401 179.57C150.707 179.57 150.958 179.635 150.958 179.715C150.958 179.795 150.707 179.957 150.401 180.075C150.094 180.192 149.844 180.124 149.844 179.926C149.844 179.728 150.094 179.57 150.401 179.57ZM173.788 183.84C173.91 183.821 174.05 183.835 174.196 183.891C174.495 184.005 174.644 184.246 174.531 184.428C174.29 184.818 173.851 184.862 173.515 184.527C173.218 184.23 173.422 183.895 173.788 183.84ZM134.792 186.616C135.199 186.616 134.941 188.351 134.377 189.4C134.048 190.012 133.645 190.929 133.482 191.439C133.256 192.144 133.179 191.857 133.154 190.236C133.129 188.569 133.283 187.937 133.864 187.358C134.273 186.949 134.69 186.616 134.792 186.616ZM178.294 186.682C178.718 186.739 179.056 187.256 179.419 188.299C179.865 189.581 179.854 189.936 179.343 191.068C178.28 193.419 177.304 195.32 176.58 196.45C176.188 197.062 175.708 197.92 175.513 198.358C175.319 198.796 175.025 199.212 174.858 199.285C174.692 199.357 174.072 200.125 173.482 200.993C172.892 201.86 172.268 202.57 172.092 202.57C171.915 202.57 171.768 202.82 171.768 203.126C171.768 203.432 171.477 203.699 171.12 203.718C167.301 203.925 166.601 203.852 166.435 203.22C166.226 202.425 164.96 202.37 164.204 203.126C163.897 203.432 163.215 203.682 162.689 203.682C161.89 203.682 161.736 203.515 161.736 202.643C161.736 202.069 161.49 201.276 161.19 200.88C160.861 200.446 160.64 199.307 160.633 198.016C160.62 195.727 161.486 193.867 163.268 192.365C164.11 191.656 168.797 189.941 169.86 189.952C171.156 189.965 176.268 188.007 177.413 187.06C177.754 186.778 178.04 186.647 178.294 186.682ZM163.432 208.177C163.975 208.217 164.358 208.397 164.491 208.744C164.62 209.079 164.682 209.373 164.626 209.395C164.57 209.417 164.187 209.648 163.778 209.911C163.369 210.173 162.578 210.585 162.016 210.827C161.454 211.068 160.993 211.381 160.993 211.524C160.993 211.667 160.504 211.894 159.905 212.026C159.306 212.157 158.616 212.503 158.372 212.796C158.129 213.089 157.688 213.33 157.393 213.33C157.098 213.33 156.489 213.532 156.043 213.781C155.056 214.332 152.758 215.026 149.287 215.816C146.413 216.47 136.017 216.837 134.796 216.329H134.792C134.384 216.158 133.132 215.896 132.008 215.743C129.802 215.444 129.421 215.14 129.412 213.679C129.407 212.646 131.469 210.361 132.408 210.361C132.711 210.361 133.331 210.099 133.788 209.78C135.368 208.675 143.529 209.422 146.622 210.954C147.201 211.24 148.004 211.473 148.406 211.473C148.808 211.473 149.59 211.703 150.142 211.982C151.431 212.633 153.578 212.977 154.343 212.655C154.671 212.516 155.716 211.746 156.669 210.946C158.736 209.211 161.803 208.059 163.432 208.177Z" fill="white"/>
</svg>
