<svg width="276" height="276" viewBox="0 0 276 276" fill="none" xmlns="http://www.w3.org/2000/svg">
<path fill-rule="evenodd" clip-rule="evenodd" d="M1.54081 0H274.459C275.313 0 276 0.686065 276 1.5383V274.462C276 275.314 275.313 276 274.459 276H1.54081C0.687186 276 0 275.314 0 274.462V1.5383C0 0.686065 0.687186 0 1.54081 0Z" fill="#8F1838"/>
<path d="M79.7762 24.3169C81.2837 24.3169 82.5709 24.8495 83.6378 25.9146C84.7278 26.9566 85.2728 28.2301 85.2728 29.7352V41.822C85.2728 43.5355 84.751 44.9247 83.7073 45.9899C82.6637 47.055 81.3185 47.5876 79.6718 47.5876H74.4883V24.3169H79.7762ZM81.9679 41.822V29.7352C81.9679 29.0868 81.7244 28.5427 81.2373 28.1027C80.7735 27.6628 80.2053 27.4428 79.5327 27.4428H77.7932V44.4964H79.4283C81.1214 44.4964 81.9679 43.6049 81.9679 41.822Z" fill="white"/>
<path d="M98.129 44.2533V47.5876H88.1445V24.3169H98.129V27.3733H91.4495V34.2504H97.294V37.411H91.4495V44.2533H98.129Z" fill="white"/>
<path d="M110.333 41.7177C110.333 42.4587 110.286 43.0954 110.193 43.628C110.124 44.1605 109.892 44.7394 109.498 45.3646C109.289 45.6888 109.022 46.0013 108.697 46.3023C108.396 46.5802 108.048 46.8349 107.654 47.0665C107.283 47.2749 106.877 47.4485 106.436 47.5875C105.995 47.7264 105.566 47.7958 105.149 47.7958C104.105 47.7958 103.154 47.5759 102.296 47.1359C101.461 46.696 100.847 46.1403 100.452 45.4688C100.058 44.7973 99.8031 44.1721 99.6871 43.5932C99.5943 43.0144 99.5479 42.3892 99.5479 41.7177V29.7351C99.5479 29.0867 99.6058 28.5078 99.7217 27.9984C99.8609 27.4659 100.139 26.8986 100.557 26.2966C100.974 25.6946 101.566 25.1851 102.331 24.7683C103.096 24.3284 103.896 24.1084 104.731 24.1084C106.332 24.1084 107.665 24.641 108.732 25.7061C109.799 26.7481 110.332 28.0911 110.332 29.7351V30.9854H107.027V29.7351C107.027 29.0867 106.842 28.5426 106.471 28.1026C106.123 27.6627 105.601 27.4427 104.905 27.4427C104.256 27.4427 103.746 27.6627 103.375 28.1026C103.027 28.5426 102.853 29.0867 102.853 29.7351V42.6207C102.899 42.968 103.061 43.3617 103.34 43.8016C103.665 44.2647 104.198 44.4963 104.94 44.4963C105.729 44.4963 106.25 44.2879 106.506 43.8711C106.761 43.4543 106.911 43.1533 106.958 42.9681C107.004 42.7597 107.027 42.4818 107.027 42.1345V40.9536H110.332L110.333 41.7177Z" fill="white"/>
<path d="M122.558 44.2533V47.5876H112.573V24.3169H122.558V27.3733H115.878V34.2504H121.723V37.411H115.878V44.2533H122.558Z" fill="white"/>
<path d="M133.027 47.5876L127.843 33.4515V47.5876H124.503V24.3169H127.669L132.818 38.4182V24.3169H136.158V47.5876H133.027Z" fill="white"/>
<path d="M140.878 47.5876V27.4081H136.947V24.3169H148.184V27.4081H144.183V47.5876H140.878Z" fill="white"/>
<path d="M164.431 47.5876L161.683 33.4168L159.004 47.5876H155.908L152.533 24.3169H156.082L157.752 38.3835L160.43 24.3169H162.9L165.649 38.3835L167.319 24.3169H170.832L167.562 47.5876H164.431Z" fill="white"/>
<path d="M172.946 26.505C173.48 25.764 174.152 25.1851 174.964 24.7683C175.799 24.3284 176.657 24.1084 177.539 24.1084C178.397 24.1084 179.197 24.2821 179.939 24.6294C180.704 24.9767 181.342 25.4514 181.852 26.0534C182.363 26.6555 182.711 27.2806 182.896 27.929C183.082 28.5542 183.174 29.2373 183.174 29.9782V41.8219C183.174 42.5165 183.105 43.1301 182.966 43.6627C182.85 44.1952 182.571 44.7857 182.131 45.4341C181.713 46.0824 181.099 46.6381 180.287 47.1012C179.498 47.5643 178.617 47.7958 177.643 47.7958C177.086 47.7958 176.553 47.7264 176.043 47.5875C175.532 47.4254 175.057 47.217 174.616 46.9623C174.176 46.7076 173.781 46.4181 173.433 46.094C173.109 45.7698 172.854 45.4341 172.668 45.0867C172.32 44.3689 172.111 43.79 172.042 43.3501C171.972 42.9101 171.938 42.4008 171.938 41.8219V29.9782C171.938 29.2836 172.007 28.6699 172.146 28.1374C172.309 27.5816 172.575 27.0375 172.946 26.505ZM179.417 28.3458C178.976 27.6974 178.373 27.3732 177.608 27.3732C177.214 27.3732 176.82 27.489 176.425 27.7206C176.054 27.929 175.787 28.1721 175.625 28.45C175.486 28.7278 175.393 29.0057 175.347 29.2835C175.301 29.5614 175.277 29.793 175.277 29.9782V41.8219C175.277 41.9376 175.277 42.065 175.277 42.2039C175.277 42.3197 175.289 42.4471 175.312 42.586C175.335 42.8176 175.521 43.1996 175.869 43.7322C176.217 44.2184 176.796 44.4616 177.608 44.4616C178.026 44.4616 178.397 44.3689 178.721 44.1837C179.069 43.9753 179.313 43.7438 179.452 43.489C179.614 43.2112 179.719 42.9565 179.765 42.7249C179.812 42.4934 179.835 42.1924 179.835 41.8219V29.9782C179.835 29.5151 179.812 29.1909 179.765 29.0057C179.742 28.8205 179.626 28.6005 179.417 28.3458Z" fill="white"/>
<path d="M186.006 47.5876V24.3169H191.85C193.381 24.3169 194.668 24.8495 195.712 25.9146C196.779 26.9797 197.312 28.288 197.312 29.8394V31.9928C197.312 34.1462 196.396 35.7901 194.564 36.9247L198.112 47.5876H194.564L191.433 37.6194H189.346V47.5876H186.006ZM193.416 33.9378C193.625 33.6831 193.764 33.3936 193.833 33.0695C193.926 32.7453 193.973 32.3864 193.973 31.9928V29.8394C193.973 29.1216 193.775 28.5427 193.381 28.1027C192.987 27.6396 192.43 27.4081 191.711 27.4081H189.346V34.6671H191.677C192.372 34.6671 192.952 34.424 193.416 33.9378Z" fill="white"/>
<path d="M208.112 47.5876L204.389 37.2026L202.546 40.6411V47.5876H199.241V24.3169H202.58V35.0145L207.555 24.3169H210.86L206.303 33.5904L211.66 47.5876H208.112Z" fill="white"/>
<path d="M215.013 47.5876L220.231 24.3169H223.119L228.337 47.5876H224.754L223.814 42.5861H219.5L218.526 47.5876H215.013ZM220.092 39.4949H223.223L221.657 31.0203L220.092 39.4949Z" fill="white"/>
<path d="M238.56 47.5876L233.377 33.4515V47.5876H230.037V24.3169H233.203L238.352 38.4182V24.3169H241.691V47.5876H238.56Z" fill="white"/>
<path d="M249.327 24.3169C250.835 24.3169 252.122 24.8495 253.189 25.9146C254.279 26.9566 254.824 28.2301 254.824 29.7352V41.822C254.824 43.5355 254.302 44.9247 253.258 45.9899C252.215 47.055 250.869 47.5876 249.223 47.5876H244.039V24.3169H249.327ZM251.519 41.822V29.7352C251.519 29.0868 251.275 28.5427 250.788 28.1027C250.324 27.6628 249.756 27.4428 249.083 27.4428H247.344V44.4964H248.979C250.672 44.4964 251.519 43.6049 251.519 41.822Z" fill="white"/>
<path d="M84.4727 76.3436V79.6779H74.4883V56.4072H84.4727V59.4637H77.7932V66.3407H83.6378V69.5013H77.7932V76.3436H84.4727Z" fill="white"/>
<path d="M96.5338 73.809C96.5338 74.55 96.4873 75.1867 96.3945 75.7193C96.3249 76.2519 96.0931 76.8307 95.6988 77.4559C95.49 77.7801 95.2233 78.0926 94.8986 78.3937C94.5971 78.6715 94.2492 78.9262 93.8549 79.1578C93.4838 79.3662 93.078 79.5398 92.6373 79.6788C92.1967 79.8177 91.7676 79.8872 91.3501 79.8872C90.3065 79.8872 89.3556 79.6672 88.4974 79.2272C87.6625 78.7873 87.0479 78.2316 86.6536 77.5601C86.2594 76.8886 86.0042 76.2634 85.8883 75.6845C85.7954 75.1057 85.749 74.4805 85.749 73.809V61.8264C85.749 61.178 85.807 60.5992 85.9229 60.0898C86.0621 59.5572 86.3404 58.9899 86.7578 58.3879C87.1753 57.7859 87.7668 57.2764 88.5321 56.8596C89.2975 56.4197 90.0976 56.1997 90.9325 56.1997C92.5328 56.1997 93.8664 56.7323 94.9333 57.7974C96.0001 58.8394 96.5335 60.1824 96.5335 61.8264V63.0767H93.2286V61.8264C93.2286 61.178 93.0431 60.6339 92.672 60.194C92.3241 59.754 91.8022 59.534 91.1065 59.534C90.4571 59.534 89.9469 59.754 89.5758 60.194C89.2279 60.6339 89.0539 61.178 89.0539 61.8264V74.712C89.1003 75.0594 89.2626 75.453 89.541 75.8929C89.8657 76.356 90.3991 76.5876 91.1413 76.5876C91.9298 76.5876 92.4517 76.3792 92.7068 75.9624C92.9619 75.5456 93.1127 75.2446 93.159 75.0594C93.2054 74.851 93.2286 74.5731 93.2286 74.2258V73.0449H96.5335L96.5338 73.809Z" fill="white"/>
<path d="M99.9517 58.5963C100.485 57.8553 101.158 57.2764 101.97 56.8596C102.804 56.4197 103.663 56.1997 104.544 56.1997C105.402 56.1997 106.202 56.3734 106.944 56.7207C107.71 57.068 108.348 57.5427 108.858 58.1447C109.368 58.7468 109.716 59.372 109.901 60.0203C110.087 60.6455 110.18 61.3285 110.18 62.0695V73.9132C110.18 74.6079 110.11 75.2214 109.971 75.754C109.855 76.2866 109.577 76.877 109.136 77.5253C108.719 78.1737 108.104 78.7294 107.292 79.1925C106.504 79.6556 105.622 79.8872 104.648 79.8872C104.092 79.8872 103.558 79.8177 103.048 79.6788C102.538 79.5167 102.062 79.3083 101.622 79.0536C101.181 78.7989 100.787 78.5094 100.439 78.1853C100.114 77.8611 99.859 77.5254 99.6734 77.178C99.3255 76.4602 99.1168 75.8814 99.0472 75.4414C98.9777 75.0015 98.9429 74.4921 98.9429 73.9132V62.0695C98.9429 61.3749 99.0124 60.7612 99.1516 60.2287C99.3139 59.673 99.5806 59.1288 99.9517 58.5963ZM106.423 60.4371C105.982 59.7887 105.379 59.4645 104.613 59.4645C104.219 59.4645 103.825 59.5803 103.431 59.8119C103.06 60.0203 102.793 60.2634 102.631 60.5413C102.491 60.8191 102.399 61.097 102.352 61.3748C102.306 61.6527 102.283 61.8843 102.283 62.0695V73.9132C102.283 74.0289 102.283 74.1563 102.283 74.2952C102.283 74.411 102.294 74.5384 102.318 74.6773C102.341 74.9089 102.526 75.2909 102.874 75.8235C103.222 76.3097 103.802 76.5529 104.614 76.5529C105.031 76.5529 105.402 76.4602 105.727 76.275C106.075 76.0666 106.318 75.8351 106.457 75.5804C106.62 75.3025 106.724 75.0478 106.771 74.8162C106.817 74.5847 106.84 74.2837 106.84 73.9132V62.0695C106.84 61.6064 106.817 61.2822 106.771 61.097C106.747 60.9118 106.631 60.6918 106.423 60.4371Z" fill="white"/>
<path d="M121.37 79.6784L116.187 65.5423V79.6784H112.847V56.4077H116.013L121.162 70.509V56.4077H124.501V79.6784H121.37Z" fill="white"/>
<path d="M127.549 58.5963C128.083 57.8553 128.755 57.2764 129.567 56.8596C130.402 56.4197 131.26 56.1997 132.142 56.1997C133 56.1997 133.8 56.3734 134.542 56.7207C135.307 57.068 135.945 57.5427 136.455 58.1447C136.966 58.7468 137.314 59.372 137.499 60.0203C137.685 60.6455 137.777 61.3285 137.777 62.0695V73.9132C137.777 74.6079 137.708 75.2214 137.569 75.754C137.453 76.2866 137.174 76.877 136.734 77.5253C136.316 78.1737 135.702 78.7294 134.89 79.1925C134.101 79.6556 133.22 79.8872 132.246 79.8872C131.689 79.8872 131.156 79.8177 130.646 79.6788C130.135 79.5167 129.66 79.3083 129.219 79.0536C128.779 78.7989 128.384 78.5094 128.036 78.1853C127.712 77.8611 127.457 77.5254 127.271 77.178C126.923 76.4602 126.714 75.8814 126.645 75.4414C126.575 75.0015 126.541 74.4921 126.541 73.9132V62.0695C126.541 61.3749 126.61 60.7612 126.749 60.2287C126.912 59.673 127.178 59.1288 127.549 58.5963ZM134.02 60.4371C133.58 59.7887 132.976 59.4645 132.211 59.4645C131.817 59.4645 131.423 59.5803 131.028 59.8119C130.657 60.0203 130.391 60.2634 130.228 60.5413C130.089 60.8191 129.996 61.097 129.95 61.3748C129.904 61.6527 129.88 61.8843 129.88 62.0695V73.9132C129.88 74.0289 129.88 74.1563 129.88 74.2952C129.88 74.411 129.892 74.5384 129.915 74.6773C129.938 74.9089 130.124 75.2909 130.472 75.8235C130.82 76.3097 131.4 76.5529 132.211 76.5529C132.629 76.5529 133 76.4602 133.325 76.275C133.672 76.0666 133.916 75.8351 134.055 75.5804C134.217 75.3025 134.322 75.0478 134.368 74.8162C134.415 74.5847 134.438 74.2837 134.438 73.9132V62.0695C134.438 61.6064 134.415 61.2822 134.368 61.097C134.345 60.9118 134.229 60.6918 134.02 60.4371Z" fill="white"/>
<path d="M151.875 79.6784V65.5076L148.535 75.441H146.865L143.56 65.5076V79.6784H140.22V56.4077H143.351L147.769 68.8071L152.118 56.4077H155.179V79.6784H151.875Z" fill="white"/>
<path d="M157.193 79.6784V56.4077H160.498V79.6784H157.193Z" fill="white"/>
<path d="M174.249 73.809C174.249 74.55 174.202 75.1867 174.109 75.7193C174.04 76.2519 173.808 76.8307 173.414 77.4559C173.205 77.7801 172.938 78.0926 172.613 78.3937C172.312 78.6715 171.964 78.9262 171.57 79.1578C171.199 79.3662 170.793 79.5398 170.352 79.6788C169.912 79.8177 169.482 79.8872 169.065 79.8872C168.021 79.8872 167.07 79.6672 166.212 79.2272C165.377 78.7873 164.763 78.2316 164.368 77.5601C163.974 76.8886 163.719 76.2634 163.603 75.6845C163.51 75.1057 163.464 74.4805 163.464 73.809V61.8264C163.464 61.178 163.522 60.5992 163.638 60.0898C163.777 59.5572 164.055 58.9899 164.473 58.3879C164.89 57.7859 165.482 57.2764 166.247 56.8596C167.012 56.4197 167.812 56.1997 168.647 56.1997C170.248 56.1997 171.581 56.7323 172.648 57.7974C173.715 58.8394 174.248 60.1824 174.248 61.8264V63.0767H170.943V61.8264C170.943 61.178 170.758 60.6339 170.387 60.194C170.039 59.754 169.517 59.534 168.821 59.534C168.172 59.534 167.662 59.754 167.291 60.194C166.943 60.6339 166.769 61.178 166.769 61.8264V74.712C166.815 75.0594 166.977 75.453 167.256 75.8929C167.581 76.356 168.114 76.5876 168.856 76.5876C169.645 76.5876 170.167 76.3792 170.422 75.9624C170.677 75.5456 170.828 75.2446 170.874 75.0594C170.92 74.851 170.943 74.5731 170.943 74.2258V73.0449H174.248L174.249 73.809Z" fill="white"/>
<path d="M190.766 77.2475C190.232 78.0811 189.548 78.7294 188.713 79.1925C187.878 79.6556 186.962 79.8872 185.965 79.8872C185.083 79.8872 184.225 79.6788 183.39 79.262C182.579 78.8452 181.941 78.3358 181.477 77.7337C181.036 77.1085 180.735 76.4834 180.573 75.8582C180.433 75.233 180.364 74.5268 180.364 73.7396V62.1042C180.364 61.5253 180.422 60.9465 180.538 60.3676C180.7 59.7887 181.129 58.9667 181.825 57.9016C182.544 56.767 183.959 56.1997 186.069 56.1997C186.997 56.1997 187.867 56.4197 188.678 56.8596C189.49 57.2996 190.105 57.8437 190.522 58.4921C190.963 59.1173 191.241 59.7193 191.357 60.2982C191.496 60.8539 191.566 61.4559 191.566 62.1042V63.0767H188.261V62.1042C188.261 61.919 188.249 61.7569 188.226 61.618C188.226 61.4559 188.214 61.317 188.191 61.2012C188.168 60.9928 187.994 60.6571 187.669 60.194C187.345 59.7309 186.8 59.4993 186.034 59.4993C185.13 59.4993 184.527 59.7424 184.225 60.2287C183.947 60.7149 183.785 61.0738 183.738 61.3054C183.692 61.5369 183.669 61.8032 183.669 62.1042V73.7396C183.669 73.9711 183.669 74.1679 183.669 74.33C183.669 74.4921 183.68 74.631 183.703 74.7468C183.727 74.932 183.901 75.2909 184.225 75.8235C184.527 76.3097 185.118 76.5529 186 76.5529C186.904 76.5529 187.484 76.3097 187.739 75.8235C187.878 75.5688 187.983 75.3604 188.052 75.1983C188.122 75.0131 188.168 74.851 188.191 74.712C188.238 74.5731 188.261 74.4342 188.261 74.2952C188.261 74.1332 188.261 73.948 188.261 73.7396V69.6759H185.582V66.7584H191.566V73.7396C191.566 74.2258 191.554 74.6426 191.531 74.9899C191.508 75.3141 191.461 75.6035 191.392 75.8582C191.322 76.1129 191.229 76.356 191.113 76.5876C191.021 76.796 190.905 77.0159 190.766 77.2475Z" fill="white"/>
<path d="M193.94 79.6784V56.4077H199.784C201.315 56.4077 202.602 56.9403 203.646 58.0054C204.713 59.0705 205.246 60.3788 205.246 61.9302V64.0836C205.246 66.237 204.33 67.8809 202.498 69.0155L206.047 79.6784H202.498L199.367 69.7102H197.28V79.6784H193.94ZM201.35 66.0286C201.559 65.7739 201.698 65.4844 201.767 65.1603C201.86 64.8361 201.907 64.4772 201.907 64.0836V61.9302C201.907 61.2124 201.71 60.6335 201.315 60.1936C200.921 59.7305 200.364 59.4989 199.645 59.4989H197.28V66.758H199.611C200.306 66.758 200.886 66.5148 201.35 66.0286Z" fill="white"/>
<path d="M208.019 58.5963C208.553 57.8553 209.225 57.2764 210.037 56.8596C210.872 56.4197 211.73 56.1997 212.611 56.1997C213.469 56.1997 214.27 56.3734 215.012 56.7207C215.777 57.068 216.415 57.5427 216.925 58.1447C217.435 58.7468 217.783 59.372 217.969 60.0203C218.154 60.6455 218.247 61.3285 218.247 62.0695V73.9132C218.247 74.6079 218.178 75.2214 218.038 75.754C217.922 76.2866 217.644 76.877 217.203 77.5253C216.786 78.1737 216.171 78.7294 215.36 79.1925C214.571 79.6556 213.69 79.8872 212.716 79.8872C212.159 79.8872 211.626 79.8177 211.115 79.6788C210.605 79.5167 210.13 79.3083 209.689 79.0536C209.248 78.7989 208.854 78.5094 208.506 78.1853C208.182 77.8611 207.926 77.5254 207.741 77.178C207.393 76.4602 207.184 75.8814 207.115 75.4414C207.045 75.0015 207.01 74.4921 207.01 73.9132V62.0695C207.01 61.3749 207.08 60.7612 207.219 60.2287C207.381 59.673 207.648 59.1288 208.019 58.5963ZM214.49 60.4371C214.049 59.7887 213.446 59.4645 212.681 59.4645C212.287 59.4645 211.892 59.5803 211.498 59.8119C211.127 60.0203 210.86 60.2634 210.698 60.5413C210.559 60.8191 210.466 61.097 210.42 61.3748C210.373 61.6527 210.35 61.8843 210.35 62.0695V73.9132C210.35 74.0289 210.35 74.1563 210.35 74.2952C210.35 74.411 210.362 74.5384 210.385 74.6773C210.408 74.9089 210.594 75.2909 210.942 75.8235C211.289 76.3097 211.869 76.5529 212.681 76.5529C213.098 76.5529 213.47 76.4602 213.794 76.275C214.142 76.0666 214.386 75.8351 214.525 75.5804C214.687 75.3025 214.792 75.0478 214.838 74.8162C214.884 74.5847 214.907 74.2837 214.907 73.9132V62.0695C214.907 61.6064 214.884 61.2822 214.838 61.097C214.815 60.9118 214.699 60.6918 214.49 60.4371Z" fill="white"/>
<path d="M231.887 79.6784L229.139 65.5076L226.46 79.6784H223.364L219.989 56.4077H223.538L225.208 70.4743L227.886 56.4077H230.356L233.105 70.4743L234.775 56.4077H238.288L235.018 79.6784H231.887Z" fill="white"/>
<path d="M242.955 79.6784V59.4989H239.023V56.4077H250.26V59.4989H246.26V79.6784H242.955Z" fill="white"/>
<path d="M251.898 79.6784V56.4077H255.203V66.3412H259.448V56.4077H262.753V79.6784H259.448V69.2934H255.203V79.6784H251.898Z" fill="white"/>
<path d="M52.4468 67.1499V67.7317C52.4468 68.9506 52.1693 70.2249 51.6143 71.5547C51.0594 72.8844 50.2824 74.1311 49.2835 75.2946C48.2845 76.4028 47.0914 77.317 45.7039 78.0372C44.3165 78.7575 42.8181 79.1176 41.2087 79.1176H40.959C39.7935 79.1176 38.6281 78.9514 37.4627 78.619C36.3527 78.2865 35.2983 77.8433 34.2993 77.2892C33.3559 76.7352 32.5235 76.1257 31.802 75.4608C31.0806 74.7405 30.5533 73.9926 30.2204 73.2169C29.4989 71.6655 29.0549 70.3911 28.8884 69.3938C28.7219 68.3411 28.6387 67.2884 28.6387 66.2357V56.5118C28.6387 53.6307 29.9706 51.1929 32.6345 49.1982C29.9706 47.2036 28.6387 44.461 28.6387 40.9704V33.4906C28.6387 32.327 28.8329 31.2466 29.2214 30.2493C29.6099 29.1966 30.6088 27.6175 32.2182 25.5121C33.7721 23.4621 36.6302 22.437 40.7925 22.437C42.2909 22.437 43.7615 22.7695 45.2045 23.4343C46.5919 24.0992 48.1458 25.3182 49.8662 27.0912C51.5866 28.8088 52.4468 31.2466 52.4468 34.4048V41.5522C52.4468 44.7658 51.1149 47.3144 48.451 49.1982C51.1149 51.1375 52.4468 53.7693 52.4468 57.0936V67.1499ZM40.626 30.3324C39.4606 30.3324 38.4894 30.7479 37.7124 31.579C36.9355 32.3547 36.547 33.2966 36.547 34.4048V41.5522C36.547 42.8265 36.88 43.9346 37.5459 44.8765C38.2674 45.763 39.2663 46.2063 40.5427 46.2063C41.9302 46.2063 42.9291 45.7908 43.5395 44.9597C44.2055 44.0732 44.5385 42.9374 44.5385 41.5522V34.4048C44.5385 33.3521 44.15 32.4101 43.3731 31.579C42.6516 30.7479 41.7359 30.3324 40.626 30.3324ZM40.626 52.2733C39.405 52.2733 38.4061 52.6889 37.6292 53.52C36.9077 54.2956 36.547 55.2929 36.547 56.5118V66.2357C36.547 67.6762 36.88 68.8675 37.5459 69.8094C38.2119 70.6959 39.294 71.1392 40.7925 71.1392C42.2354 71.1392 43.2066 70.6682 43.706 69.7263C44.261 68.729 44.5385 67.5654 44.5385 66.2357V56.5118C44.5385 55.2929 44.1778 54.2956 43.4563 53.52C42.7904 52.6889 41.8469 52.2733 40.626 52.2733Z" fill="white"/>
<path d="M203.681 101.093C203.567 101.092 203.447 101.105 203.328 101.137L180.556 107.228C179.603 107.483 179.285 108.673 179.985 109.368L184.906 114.281L136.282 162.858L116.928 143.54C115.109 141.724 112.159 141.724 110.34 143.54L71.2642 182.552L77.8563 189.129L113.634 153.406L132.985 172.729C134.805 174.547 137.757 174.547 139.577 172.729L191.494 120.859L196.652 126.009C196.897 126.253 197.231 126.388 197.577 126.383C198.149 126.376 198.647 125.99 198.796 125.438L204.897 102.703C205.121 101.871 204.483 101.102 203.681 101.093ZM191.494 134.018L160.816 164.668V239.538C160.816 241.507 162.404 243.088 164.376 243.088H190.468C192.44 243.088 194.028 241.507 194.028 239.538V136.548L191.494 134.018ZM112.72 167.477L79.5125 200.635V239.538C79.5125 241.507 81.1006 243.088 83.0724 243.088H109.164C111.136 243.088 112.72 241.507 112.72 239.538V167.477ZM153.372 172.104L139.577 185.888C137.757 187.706 134.805 187.706 132.985 185.888L120.164 173.085V239.538C120.164 241.507 121.753 243.088 123.724 243.088H149.816C151.788 243.088 153.372 241.507 153.372 239.538V172.104Z" fill="white"/>
<path d="M203.681 101.093C203.567 101.092 203.447 101.105 203.328 101.137L180.556 107.228C179.603 107.483 179.285 108.673 179.985 109.368L184.906 114.281L136.282 162.858L116.928 143.54C115.109 141.724 112.159 141.724 110.34 143.54L71.2642 182.552L77.8563 189.129L113.634 153.406L132.985 172.729C134.805 174.547 137.757 174.547 139.577 172.729L191.494 120.859L196.652 126.009C196.897 126.253 197.231 126.388 197.577 126.383C198.149 126.376 198.647 125.99 198.796 125.438L204.897 102.703C205.121 101.871 204.483 101.102 203.681 101.093Z" fill="white"/>
</svg>
