<svg width="276" height="276" viewBox="0 0 276 276" fill="none" xmlns="http://www.w3.org/2000/svg">
<path fill-rule="evenodd" clip-rule="evenodd" d="M1.54076 0H274.459C275.313 0 276 0.686065 276 1.5383V274.462C276 275.314 275.313 276 274.459 276H1.54076C0.687147 276 0 275.314 0 274.462V1.5383C0 0.686065 0.687147 0 1.54076 0Z" fill="#CF8D2A"/>
<path d="M88.8149 46.9513V23.6807H94.6595C96.1902 23.6807 97.4773 24.2132 98.521 25.2783C99.5878 26.3434 100.121 27.6517 100.121 29.2031V31.3564C100.121 33.5098 99.2052 35.1539 97.373 36.2885L100.921 46.9513H97.373L94.242 36.9831H92.1547V46.9513H88.8149ZM96.2249 33.3015C96.4336 33.0468 96.5728 32.7573 96.6424 32.4332C96.7352 32.109 96.7816 31.7501 96.7816 31.3564V29.2031C96.7816 28.4853 96.5845 27.9064 96.1902 27.4664C95.7959 27.0033 95.2393 26.7718 94.5204 26.7718H92.1547V34.0309H94.4855C95.1813 34.0309 95.7611 33.7877 96.2249 33.3015Z" fill="white"/>
<path d="M111.807 43.617V46.9513H101.822V23.6807H111.807V26.7371H105.127V33.6141H110.972V36.7747H105.127V43.617H111.807Z" fill="white"/>
<path d="M115.586 41.1514C115.586 41.3829 115.586 41.5797 115.586 41.7418C115.586 41.9039 115.598 42.0429 115.621 42.1586C115.667 42.3902 115.841 42.7259 116.143 43.1658C116.467 43.6289 117.047 43.8605 117.882 43.8605C118.346 43.8605 118.775 43.7679 119.169 43.5826C119.564 43.3742 119.854 43.108 120.039 42.7838C120.178 42.5291 120.259 42.286 120.283 42.0544C120.329 41.8229 120.352 41.6144 120.352 41.4292V41.1166V39.4842V39.1716C120.352 38.6622 120.259 38.2686 120.074 37.9907C119.888 37.6897 119.471 37.354 118.821 36.9835C118.381 36.7519 117.592 36.4278 116.456 36.011C115.319 35.5942 114.368 34.9343 113.603 34.0312C112.838 33.1282 112.455 31.901 112.455 30.3496V29.3077C112.455 27.71 112.988 26.3438 114.055 25.2092C115.145 24.0515 116.467 23.4727 118.021 23.4727C119.645 23.4727 120.99 24.0399 122.057 25.1745C123.147 26.3091 123.692 27.6868 123.692 29.3077V30.3496H120.352V29.3077C120.352 29.1456 120.341 28.995 120.317 28.8561C120.317 28.7172 120.306 28.5899 120.282 28.4741C120.259 28.3584 120.201 28.2194 120.109 28.0573C120.016 27.8952 119.888 27.6984 119.726 27.4668C119.401 27.0037 118.856 26.7722 118.091 26.7722C117.418 26.7722 116.862 27.0153 116.421 27.5016C116.003 27.9878 115.795 28.5899 115.795 29.3077V30.3496V30.6622C115.795 31.1253 115.864 31.4958 116.003 31.7736C116.166 32.0283 116.537 32.3178 117.117 32.6419C117.302 32.7346 117.581 32.862 117.952 33.024C118.346 33.163 118.821 33.3366 119.378 33.545C120.491 33.9155 121.489 34.5754 122.37 35.5247C123.251 36.4741 123.692 37.7244 123.692 39.2758V41.1514C123.692 41.9618 123.611 42.6449 123.448 43.2006C123.309 43.7563 122.834 44.5667 122.022 45.6319C121.21 46.6507 119.853 47.16 117.952 47.16C115.934 47.16 114.473 46.5117 113.568 45.2151C112.664 43.8952 112.211 42.5406 112.211 41.1514V40.3178H115.586L115.586 41.1514Z" fill="white"/>
<path d="M125.204 46.9513V23.6807H130.666H130.735C131.431 23.6807 132.092 23.8311 132.718 24.1321C133.345 24.41 133.901 24.7805 134.388 25.2436C134.875 25.7067 135.258 26.2392 135.536 26.8413C135.838 27.4201 136 28.0222 136.023 28.6473V32.0164V32.3637C136.023 33.1278 135.873 33.8456 135.571 34.5171C135.293 35.1654 134.91 35.7327 134.423 36.219C133.936 36.7052 133.356 37.0873 132.684 37.3651C132.034 37.643 131.339 37.7819 130.596 37.7819H130.283H128.544V46.9513H125.204ZM132.266 33.9614C132.475 33.753 132.602 33.533 132.649 33.3015C132.718 33.0699 132.753 32.7805 132.753 32.4332V28.9947C132.753 28.3463 132.556 27.8138 132.162 27.397C131.768 26.957 131.234 26.7371 130.562 26.7371H128.544V34.6213H130.283C130.747 34.6213 131.118 34.5866 131.396 34.5171C131.698 34.4244 131.988 34.2392 132.266 33.9614Z" fill="white"/>
<path d="M138.673 25.8692C139.206 25.1282 139.879 24.5493 140.691 24.1325C141.526 23.6926 142.384 23.4727 143.265 23.4727C144.123 23.4727 144.923 23.6463 145.666 23.9936C146.431 24.341 147.069 24.8156 147.579 25.4176C148.089 26.0197 148.437 26.6448 148.623 27.2932C148.808 27.9184 148.901 28.6015 148.901 29.3424V41.1861C148.901 41.8807 148.831 42.4943 148.692 43.0269C148.576 43.5594 148.298 44.1499 147.857 44.7982C147.44 45.4466 146.825 46.0023 146.013 46.4654C145.225 46.9285 144.344 47.16 143.369 47.16C142.813 47.16 142.279 47.0906 141.769 46.9517C141.259 46.7896 140.784 46.5812 140.343 46.3265C139.902 46.0718 139.508 45.7823 139.16 45.4582C138.835 45.134 138.58 44.7983 138.395 44.4509C138.047 43.7332 137.838 43.1542 137.768 42.7143C137.699 42.2744 137.664 41.765 137.664 41.1861V29.3424C137.664 28.6478 137.734 28.0341 137.873 27.5016C138.035 26.9458 138.302 26.4017 138.673 25.8692ZM145.144 27.71C144.703 27.0616 144.1 26.7374 143.335 26.7374C142.94 26.7374 142.546 26.8532 142.152 27.0848C141.781 27.2932 141.514 27.5363 141.352 27.8142C141.213 28.092 141.12 28.3699 141.073 28.6477C141.027 28.9256 141.004 29.1572 141.004 29.3424V41.1861C141.004 41.3018 141.004 41.4292 141.004 41.5681C141.004 41.6839 141.015 41.8113 141.039 41.9502C141.062 42.1818 141.248 42.5638 141.595 43.0964C141.943 43.5826 142.523 43.8258 143.335 43.8258C143.752 43.8258 144.123 43.7331 144.448 43.5479C144.796 43.3395 145.04 43.1079 145.179 42.8532C145.341 42.5754 145.445 42.3207 145.492 42.0891C145.538 41.8576 145.561 41.5566 145.561 41.1861V29.3424C145.561 28.8793 145.538 28.5551 145.492 28.3699C145.468 28.1846 145.352 27.9647 145.144 27.71Z" fill="white"/>
<path d="M159.812 46.9513L154.629 32.8153V46.9513H151.289V23.6807H154.455L159.604 37.7819V23.6807H162.943V46.9513H159.812Z" fill="white"/>
<path d="M167.294 41.1514C167.294 41.3829 167.294 41.5797 167.294 41.7418C167.294 41.9039 167.306 42.0429 167.329 42.1586C167.376 42.3902 167.55 42.7259 167.851 43.1658C168.176 43.6289 168.756 43.8605 169.591 43.8605C170.054 43.8605 170.484 43.7679 170.878 43.5826C171.272 43.3742 171.562 43.108 171.748 42.7838C171.887 42.5291 171.968 42.286 171.991 42.0544C172.037 41.8229 172.061 41.6144 172.061 41.4292V41.1166V39.4842V39.1716C172.061 38.6622 171.968 38.2686 171.782 37.9907C171.597 37.6897 171.179 37.354 170.53 36.9835C170.089 36.7519 169.301 36.4278 168.164 36.011C167.028 35.5942 166.077 34.9343 165.312 34.0312C164.546 33.1282 164.164 31.901 164.164 30.3496V29.3077C164.164 27.71 164.697 26.3438 165.764 25.2092C166.854 24.0515 168.176 23.4727 169.73 23.4727C171.353 23.4727 172.698 24.0399 173.765 25.1745C174.855 26.3091 175.4 27.6868 175.4 29.3077V30.3496H172.061V29.3077C172.061 29.1456 172.049 28.995 172.026 28.8561C172.026 28.7172 172.014 28.5899 171.991 28.4741C171.968 28.3584 171.91 28.2194 171.817 28.0573C171.724 27.8952 171.597 27.6984 171.434 27.4668C171.11 27.0037 170.565 26.7722 169.799 26.7722C169.127 26.7722 168.57 27.0153 168.129 27.5016C167.712 27.9878 167.503 28.5899 167.503 29.3077V30.3496V30.6622C167.503 31.1253 167.573 31.4958 167.712 31.7736C167.874 32.0283 168.245 32.3178 168.825 32.6419C169.011 32.7346 169.289 32.862 169.66 33.024C170.054 33.163 170.53 33.3366 171.086 33.545C172.2 33.9155 173.197 34.5754 174.078 35.5247C174.96 36.4741 175.4 37.7244 175.4 39.2758V41.1514C175.4 41.9618 175.319 42.6449 175.157 43.2006C175.018 43.7563 174.542 44.5667 173.73 45.6319C172.919 46.6507 171.562 47.16 169.66 47.16C167.642 47.16 166.181 46.5117 165.277 45.2151C164.372 43.8952 163.92 42.5406 163.92 41.1514V40.3178H167.294V41.1514Z" fill="white"/>
<path d="M177.231 46.9513V23.6807H180.536V46.9513H177.231Z" fill="white"/>
<path d="M188.385 23.6807C189.104 23.6807 189.776 23.8311 190.403 24.1321C191.098 24.4563 191.806 24.9773 192.525 25.6951C193.29 26.4361 193.673 27.5938 193.673 29.1683V30.9397C193.673 32.7226 192.965 33.973 191.551 34.6908C192.965 35.5244 193.673 36.821 193.673 38.5808V41.2899C193.673 42.9339 193.139 44.2884 192.072 45.3536C191.029 46.4187 189.684 46.9513 188.037 46.9513H182.888V23.6807H188.385ZM190.368 30.5924V29.1683C190.368 28.4505 190.159 27.8832 189.742 27.4664C189.324 27.0265 188.767 26.8066 188.072 26.8066H186.193V33.232H188.176C188.941 33.232 189.498 33.0005 189.846 32.5374C190.194 32.0511 190.368 31.4028 190.368 30.5924ZM190.368 41.2899V38.5808C190.368 37.8398 190.159 37.261 189.742 36.8442C189.347 36.4042 188.791 36.1843 188.072 36.1843H186.193V43.6517H188.107C188.779 43.6517 189.324 43.4318 189.742 42.9918C190.159 42.5287 190.368 41.9614 190.368 41.2899Z" fill="white"/>
<path d="M205.345 46.9513H195.396V23.6807H198.735V43.617H205.345V46.9513Z" fill="white"/>
<path d="M216.255 43.617V46.9513H206.27V23.6807H216.255V26.7371H209.575V33.6141H215.42V36.7747H209.575V43.617H216.255Z" fill="white"/>
<path d="M99.4258 73.1728C99.4258 73.9137 99.3794 74.5505 99.2866 75.0831C99.217 75.6156 98.9852 76.1945 98.5909 76.8197C98.3822 77.1438 98.1154 77.4564 97.7907 77.7574C97.4892 78.0353 97.1413 78.29 96.747 78.5215C96.3759 78.7299 95.9701 78.9036 95.5294 79.0425C95.0888 79.1815 94.6597 79.2509 94.2422 79.2509C93.1985 79.2509 92.2477 79.0309 91.3896 78.591C90.5546 78.1511 89.9401 77.5954 89.5458 76.9239C89.1515 76.2524 88.8963 75.6272 88.7803 75.0483C88.6875 74.4695 88.6411 73.8443 88.6411 73.1728V61.1901C88.6411 60.5418 88.6991 59.9629 88.815 59.4535C88.9542 58.9209 89.2325 58.3537 89.65 57.7517C90.0674 57.1496 90.6589 56.6402 91.4243 56.2234C92.1896 55.7835 92.9897 55.5635 93.8246 55.5635C95.4249 55.5635 96.7585 56.096 97.8254 57.1612C98.8922 58.2031 99.4257 59.5461 99.4257 61.1901V62.4405H96.1207V61.1901C96.1207 60.5418 95.9352 59.9976 95.5641 59.5577C95.2162 59.1177 94.6945 58.8978 93.9987 58.8978C93.3493 58.8978 92.839 59.1177 92.4679 59.5577C92.12 59.9976 91.946 60.5418 91.946 61.1901V74.0758C91.9924 74.4231 92.1548 74.8168 92.4331 75.2567C92.7578 75.7198 93.2912 75.9513 94.0334 75.9513C94.8219 75.9513 95.3438 75.7429 95.5989 75.3262C95.854 74.9094 96.0048 74.6084 96.0512 74.4231C96.0975 74.2147 96.1207 73.9369 96.1207 73.5896V72.4087H99.4256L99.4258 73.1728Z" fill="white"/>
<path d="M103.069 57.9601C103.602 57.2191 104.275 56.6402 105.087 56.2234C105.922 55.7835 106.78 55.5635 107.661 55.5635C108.519 55.5635 109.319 55.7371 110.062 56.0845C110.827 56.4318 111.465 56.9065 111.975 57.5085C112.485 58.1105 112.833 58.7357 113.019 59.384C113.204 60.0092 113.297 60.6923 113.297 61.4333V73.277C113.297 73.9716 113.227 74.5852 113.088 75.1178C112.972 75.6503 112.694 76.2408 112.253 76.8892C111.836 77.5375 111.221 78.0932 110.409 78.5563C109.621 79.0194 108.74 79.2509 107.765 79.2509C107.209 79.2509 106.675 79.1815 106.165 79.0425C105.655 78.8804 105.18 78.6721 104.739 78.4174C104.298 78.1627 103.904 77.8732 103.556 77.549C103.231 77.2249 102.976 76.8891 102.791 76.5418C102.443 75.824 102.234 75.2451 102.164 74.8052C102.095 74.3652 102.06 73.8559 102.06 73.277V61.4333C102.06 60.7386 102.13 60.125 102.269 59.5924C102.431 59.0367 102.698 58.4926 103.069 57.9601ZM109.54 59.8008C109.099 59.1525 108.496 58.8283 107.731 58.8283C107.337 58.8283 106.942 58.9441 106.548 59.1757C106.177 59.3841 105.91 59.6272 105.748 59.905C105.609 60.1829 105.516 60.4607 105.469 60.7386C105.423 61.0165 105.4 61.248 105.4 61.4333V73.277C105.4 73.3927 105.4 73.52 105.4 73.659C105.4 73.7747 105.412 73.9021 105.435 74.0411C105.458 74.2727 105.644 74.6547 105.991 75.1873C106.339 75.6735 106.919 75.9166 107.731 75.9166C108.148 75.9166 108.519 75.824 108.844 75.6387C109.192 75.4304 109.436 75.1988 109.575 74.9441C109.737 74.6663 109.841 74.4115 109.888 74.18C109.934 73.9484 109.957 73.6475 109.957 73.277V61.4333C109.957 60.9702 109.934 60.646 109.888 60.4608C109.864 60.2755 109.748 60.0555 109.54 59.8008Z" fill="white"/>
<path d="M124.049 79.0422L118.865 64.9061V79.0422H115.525V55.7715H118.691L123.84 69.8728V55.7715H127.18V79.0422H124.049Z" fill="white"/>
<path d="M131.373 73.2422C131.373 73.4738 131.373 73.6706 131.373 73.8327C131.373 73.9948 131.384 74.1337 131.408 74.2495C131.454 74.4811 131.628 74.8168 131.929 75.2567C132.254 75.7198 132.834 75.9513 133.669 75.9513C134.133 75.9513 134.562 75.8587 134.956 75.6735C135.35 75.4651 135.64 75.1988 135.826 74.8747C135.965 74.62 136.046 74.3769 136.069 74.1453C136.116 73.9137 136.139 73.7054 136.139 73.5201V73.2075V71.5751V71.2625C136.139 70.7531 136.046 70.3594 135.86 70.0816C135.675 69.7806 135.257 69.4448 134.608 69.0744C134.167 68.8428 133.379 68.5186 132.242 68.1019C131.106 67.6851 130.155 67.0252 129.39 66.1221C128.624 65.2191 128.242 63.9919 128.242 62.4405V61.3985C128.242 59.8008 128.775 58.4347 129.842 57.3001C130.932 56.1424 132.254 55.5635 133.808 55.5635C135.431 55.5635 136.777 56.1308 137.843 57.2654C138.933 58.4 139.478 59.7777 139.478 61.3985V62.4405H136.139V61.3985C136.139 61.2365 136.127 61.0859 136.104 60.947C136.104 60.8081 136.092 60.6807 136.069 60.565C136.046 60.4492 135.988 60.3103 135.895 60.1482C135.802 59.9861 135.675 59.7892 135.512 59.5577C135.188 59.0946 134.643 58.8631 133.877 58.8631C133.205 58.8631 132.648 59.1062 132.208 59.5924C131.79 60.0787 131.581 60.6807 131.581 61.3985V62.4405V62.7531C131.581 63.2162 131.651 63.5867 131.79 63.8646C131.952 64.1193 132.324 64.4087 132.903 64.7328C133.089 64.8255 133.367 64.9529 133.738 65.1149C134.133 65.2538 134.608 65.4275 135.165 65.6359C136.278 66.0064 137.275 66.6663 138.156 67.6156C139.038 68.565 139.478 69.8153 139.478 71.3667V73.2422C139.478 74.0526 139.397 74.7357 139.235 75.2915C139.096 75.8472 138.62 76.6576 137.809 77.7227C136.997 78.7415 135.64 79.2509 133.738 79.2509C131.721 79.2509 130.259 78.6026 129.355 77.3059C128.45 75.9861 127.998 74.6315 127.998 73.2422V72.4087H131.373L131.373 73.2422Z" fill="white"/>
<path d="M151.081 76.6109C150.57 77.3982 149.909 78.0349 149.098 78.5212C148.309 79.0074 147.428 79.2505 146.454 79.2505C145.967 79.2505 145.479 79.1811 144.992 79.0422C144.529 78.9032 144.088 78.7296 143.671 78.5212C143.253 78.2896 142.882 78.0349 142.557 77.757C142.233 77.456 141.989 77.1435 141.827 76.8193C141.479 76.1709 141.247 75.6036 141.131 75.1174C141.038 74.6311 140.992 74.1102 140.992 73.5544V55.7715H144.331V73.5544C144.331 73.7165 144.331 73.867 144.331 74.006C144.355 74.1217 144.378 74.2375 144.401 74.3533C144.424 74.5385 144.598 74.8627 144.923 75.3258C145.224 75.7426 145.746 75.951 146.488 75.951C147.161 75.951 147.659 75.7078 147.984 75.2216C148.332 74.7122 148.506 74.1565 148.506 73.5544V55.7715H151.846V73.5544C151.846 74.1102 151.788 74.6427 151.672 75.1521C151.556 75.6615 151.359 76.1478 151.081 76.6109Z" fill="white"/>
<path d="M164.662 79.0422V64.8714L161.322 74.8048H159.652L156.347 64.8714V79.0422H153.007V55.7715H156.138L160.557 68.1709L164.905 55.7715H167.967V79.0422H164.662Z" fill="white"/>
<path d="M170.283 79.0422V55.7715H175.745H175.815C176.51 55.7715 177.171 55.922 177.798 56.223C178.424 56.5009 178.98 56.8713 179.467 57.3344C179.955 57.7975 180.337 58.3301 180.616 58.9321C180.917 59.511 181.079 60.113 181.103 60.7382V64.1073V64.4546C181.103 65.2187 180.952 65.9365 180.65 66.608C180.372 67.2563 179.989 67.8236 179.502 68.3099C179.015 68.7961 178.435 69.1782 177.763 69.456C177.113 69.7339 176.418 69.8728 175.675 69.8728H175.362H173.623V79.0422H170.283ZM177.345 66.0523C177.554 65.8439 177.682 65.6239 177.728 65.3924C177.798 65.1608 177.832 64.8714 177.832 64.524V61.0856C177.832 60.4372 177.635 59.9046 177.241 59.4879C176.847 59.0479 176.313 58.8279 175.641 58.8279H173.623V66.7122H175.362C175.826 66.7122 176.197 66.6774 176.476 66.608C176.777 66.5153 177.067 66.3301 177.345 66.0523Z" fill="white"/>
<path d="M185.665 79.0422V58.8627H181.734V55.7715H192.971V58.8627H188.97V79.0422H185.665Z" fill="white"/>
<path d="M194.169 79.0422V55.7715H197.474V79.0422H194.169Z" fill="white"/>
<path d="M200.91 57.9601C201.444 57.2191 202.116 56.6402 202.928 56.2234C203.763 55.7835 204.621 55.5635 205.502 55.5635C206.361 55.5635 207.161 55.7371 207.903 56.0845C208.668 56.4318 209.306 56.9065 209.816 57.5085C210.326 58.1105 210.674 58.7357 210.86 59.384C211.045 60.0092 211.138 60.6923 211.138 61.4333V73.277C211.138 73.9716 211.069 74.5852 210.93 75.1178C210.814 75.6503 210.535 76.2408 210.095 76.8892C209.677 77.5375 209.063 78.0932 208.251 78.5563C207.462 79.0194 206.581 79.2509 205.607 79.2509C205.05 79.2509 204.517 79.1815 204.007 79.0425C203.496 78.8804 203.021 78.6721 202.58 78.4174C202.14 78.1627 201.745 77.8732 201.397 77.549C201.073 77.2249 200.818 76.8891 200.632 76.5418C200.284 75.824 200.075 75.2451 200.006 74.8052C199.936 74.3652 199.901 73.8559 199.901 73.277V61.4333C199.901 60.7386 199.971 60.125 200.11 59.5924C200.272 59.0367 200.539 58.4926 200.91 57.9601ZM207.381 59.8008C206.94 59.1525 206.337 58.8283 205.572 58.8283C205.178 58.8283 204.783 58.9441 204.389 59.1757C204.018 59.3841 203.751 59.6272 203.589 59.905C203.45 60.1829 203.357 60.4607 203.311 60.7386C203.264 61.0165 203.241 61.248 203.241 61.4333V73.277C203.241 73.3927 203.241 73.52 203.241 73.659C203.241 73.7747 203.253 73.9021 203.276 74.0411C203.299 74.2727 203.485 74.6547 203.833 75.1873C204.181 75.6735 204.76 75.9166 205.572 75.9166C205.99 75.9166 206.361 75.824 206.685 75.6387C207.033 75.4304 207.277 75.1988 207.416 74.9441C207.578 74.6663 207.683 74.4115 207.729 74.18C207.775 73.9484 207.799 73.6475 207.799 73.277V61.4333C207.799 60.9702 207.775 60.646 207.729 60.4608C207.706 60.2755 207.59 60.0555 207.381 59.8008Z" fill="white"/>
<path d="M222.209 79.0422L217.025 64.9061V79.0422H213.686V55.7715H216.851L222 69.8728V55.7715H225.34V79.0422H222.209Z" fill="white"/>
<path d="M87.5537 111.133L92.772 87.8628H95.6596L100.878 111.133H97.2947L96.3553 106.132H92.0415L91.0674 111.133H87.5537ZM92.6329 103.041H95.7639L94.1985 94.5662L92.6329 103.041Z" fill="white"/>
<path d="M110.942 111.133L105.758 96.9974V111.133H102.418V87.8628H105.584L110.733 101.964V87.8628H114.073V111.133H110.942Z" fill="white"/>
<path d="M121.243 87.8628C122.75 87.8628 124.037 88.3954 125.104 89.4605C126.194 90.5025 126.739 91.776 126.739 93.2811V105.368C126.739 107.081 126.217 108.471 125.174 109.536C124.13 110.601 122.785 111.133 121.138 111.133H115.955V87.8628H121.243ZM123.434 105.368V93.2811C123.434 92.6327 123.191 92.0885 122.704 91.6486C122.24 91.2087 121.672 90.9887 120.999 90.9887H119.26V108.042H120.895C122.588 108.042 123.434 107.151 123.434 105.368Z" fill="white"/>
<path d="M132.289 111.133V87.8628H137.751H137.82C138.516 87.8628 139.177 88.0133 139.803 88.3143C140.43 88.5922 140.986 88.9627 141.473 89.4258C141.96 89.8889 142.343 90.4214 142.621 91.0234C142.923 91.6023 143.085 92.2043 143.108 92.8295V96.1986V96.5459C143.108 97.31 142.958 98.0278 142.656 98.6993C142.378 99.3476 141.995 99.9149 141.508 100.401C141.021 100.887 140.441 101.269 139.769 101.547C139.119 101.825 138.423 101.964 137.681 101.964H137.368H135.629V111.133H132.289ZM139.351 98.1435C139.56 97.9352 139.687 97.7152 139.734 97.4837C139.803 97.2521 139.838 96.9627 139.838 96.6153V93.1769C139.838 92.5285 139.641 91.996 139.247 91.5792C138.853 91.1392 138.319 90.9192 137.647 90.9192H135.629V98.8035H137.368C137.832 98.8035 138.203 98.7687 138.481 98.6993C138.783 98.6066 139.073 98.4214 139.351 98.1435Z" fill="white"/>
<path d="M145.117 111.133V87.8628H150.961C152.492 87.8628 153.779 88.3954 154.823 89.4605C155.89 90.5256 156.423 91.8339 156.423 93.3853V95.5386C156.423 97.692 155.507 99.336 153.675 100.471L157.223 111.133H153.675L150.544 101.165H148.456V111.133H145.117ZM152.527 97.4837C152.736 97.229 152.875 96.9395 152.944 96.6153C153.037 96.2912 153.083 95.9323 153.083 95.5386V93.3853C153.083 92.6675 152.886 92.0885 152.492 91.6486C152.098 91.1855 151.541 90.954 150.822 90.954H148.457V98.213H150.787C151.483 98.213 152.063 97.9699 152.527 97.4837Z" fill="white"/>
<path d="M158.889 90.0509C159.423 89.3099 160.095 88.731 160.907 88.3142C161.742 87.8743 162.6 87.6543 163.481 87.6543C164.339 87.6543 165.14 87.828 165.882 88.1753C166.647 88.5226 167.285 88.9973 167.795 89.5993C168.305 90.2014 168.653 90.8265 168.839 91.4749C169.024 92.1001 169.117 92.7831 169.117 93.5241V105.368C169.117 106.062 169.048 106.676 168.908 107.209C168.792 107.741 168.514 108.332 168.073 108.98C167.656 109.628 167.041 110.184 166.23 110.647C165.441 111.11 164.56 111.342 163.586 111.342C163.029 111.342 162.496 111.272 161.985 111.133C161.475 110.971 161 110.763 160.559 110.508C160.118 110.253 159.724 109.964 159.376 109.64C159.052 109.316 158.796 108.98 158.611 108.633C158.263 107.915 158.054 107.336 157.985 106.896C157.915 106.456 157.88 105.947 157.88 105.368V93.5241C157.88 92.8295 157.95 92.2158 158.089 91.6833C158.251 91.1275 158.518 90.5834 158.889 90.0509ZM165.36 91.8917C164.919 91.2433 164.316 90.9191 163.551 90.9191C163.157 90.9191 162.762 91.0349 162.368 91.2665C161.997 91.4749 161.73 91.718 161.568 91.9959C161.429 92.2737 161.336 92.5516 161.29 92.8294C161.243 93.1073 161.22 93.3389 161.22 93.5241V105.368C161.22 105.484 161.22 105.611 161.22 105.75C161.22 105.866 161.232 105.993 161.255 106.132C161.278 106.363 161.464 106.746 161.812 107.278C162.159 107.764 162.739 108.007 163.551 108.007C163.969 108.007 164.34 107.915 164.664 107.73C165.012 107.521 165.256 107.29 165.395 107.035C165.557 106.757 165.662 106.502 165.708 106.271C165.754 106.039 165.778 105.738 165.778 105.368V93.5241C165.778 93.061 165.754 92.7368 165.708 92.5516C165.685 92.3663 165.569 92.1464 165.36 91.8917Z" fill="white"/>
<path d="M176.634 87.8628C178.141 87.8628 179.428 88.3954 180.495 89.4605C181.585 90.5025 182.13 91.776 182.13 93.2811V105.368C182.13 107.081 181.608 108.471 180.565 109.536C179.521 110.601 178.176 111.133 176.529 111.133H171.346V87.8628H176.634ZM178.825 105.368V93.2811C178.825 92.6327 178.582 92.0885 178.095 91.6486C177.631 91.2087 177.063 90.9887 176.39 90.9887H174.651V108.042H176.286C177.979 108.042 178.825 107.151 178.825 105.368Z" fill="white"/>
<path d="M194.93 108.702C194.42 109.489 193.759 110.126 192.947 110.612C192.159 111.099 191.277 111.342 190.303 111.342C189.816 111.342 189.329 111.272 188.842 111.133C188.378 110.995 187.938 110.821 187.52 110.612C187.103 110.381 186.732 110.126 186.407 109.848C186.082 109.547 185.839 109.235 185.676 108.911C185.328 108.262 185.096 107.695 184.981 107.209C184.888 106.722 184.841 106.201 184.841 105.646V87.8628H188.181V105.646C188.181 105.808 188.181 105.958 188.181 106.097C188.204 106.213 188.228 106.329 188.251 106.445C188.274 106.63 188.448 106.954 188.772 107.417C189.074 107.834 189.596 108.042 190.338 108.042C191.011 108.042 191.509 107.799 191.834 107.313C192.182 106.803 192.356 106.248 192.356 105.646V87.8628H195.695V105.646C195.695 106.201 195.637 106.734 195.522 107.243C195.406 107.753 195.209 108.239 194.93 108.702Z" fill="white"/>
<path d="M209.026 105.264C209.026 106.005 208.98 106.641 208.887 107.174C208.817 107.706 208.585 108.285 208.191 108.91C207.982 109.235 207.715 109.547 207.391 109.848C207.089 110.126 206.741 110.381 206.347 110.612C205.976 110.821 205.57 110.994 205.13 111.133C204.689 111.272 204.26 111.342 203.842 111.342C202.799 111.342 201.848 111.122 200.99 110.682C200.155 110.242 199.54 109.686 199.146 109.015C198.751 108.343 198.496 107.718 198.38 107.139C198.288 106.56 198.241 105.935 198.241 105.264V93.281C198.241 92.6326 198.299 92.0537 198.415 91.5443C198.554 91.0117 198.832 90.4445 199.25 89.8425C199.667 89.2405 200.259 88.731 201.024 88.3142C201.79 87.8743 202.59 87.6543 203.425 87.6543C205.025 87.6543 206.359 88.1869 207.425 89.252C208.492 90.294 209.026 91.637 209.026 93.281V94.5313H205.721V93.281C205.721 92.6326 205.535 92.0884 205.164 91.6485C204.816 91.2086 204.294 90.9886 203.599 90.9886C202.949 90.9886 202.439 91.2086 202.068 91.6485C201.72 92.0884 201.546 92.6326 201.546 93.281V106.167C201.592 106.514 201.755 106.908 202.033 107.348C202.358 107.811 202.891 108.042 203.633 108.042C204.422 108.042 204.944 107.834 205.199 107.417C205.454 107 205.605 106.699 205.651 106.514C205.698 106.306 205.721 106.028 205.721 105.68V104.499H209.026L209.026 105.264Z" fill="white"/>
<path d="M213.468 111.133V90.954H209.537V87.8628H220.774V90.954H216.773V111.133H213.468Z" fill="white"/>
<path d="M222.132 111.133V87.8628H225.437V111.133H222.132Z" fill="white"/>
<path d="M228.554 90.0509C229.087 89.3099 229.76 88.731 230.571 88.3142C231.406 87.8743 232.265 87.6543 233.146 87.6543C234.004 87.6543 234.804 87.828 235.546 88.1753C236.312 88.5226 236.95 88.9973 237.46 89.5993C237.97 90.2014 238.318 90.8265 238.503 91.4749C238.689 92.1001 238.782 92.7831 238.782 93.5241V105.368C238.782 106.062 238.712 106.676 238.573 107.209C238.457 107.741 238.179 108.332 237.738 108.98C237.321 109.628 236.706 110.184 235.894 110.647C235.106 111.11 234.224 111.342 233.25 111.342C232.694 111.342 232.16 111.272 231.65 111.133C231.14 110.971 230.664 110.763 230.224 110.508C229.783 110.253 229.389 109.964 229.041 109.64C228.716 109.316 228.461 108.98 228.275 108.633C227.928 107.915 227.719 107.336 227.649 106.896C227.58 106.456 227.545 105.947 227.545 105.368V93.5241C227.545 92.8295 227.614 92.2158 227.754 91.6833C227.916 91.1275 228.183 90.5834 228.554 90.0509ZM235.025 91.8917C234.584 91.2433 233.981 90.9191 233.216 90.9191C232.821 90.9191 232.427 91.0349 232.033 91.2665C231.662 91.4749 231.395 91.718 231.233 91.9959C231.093 92.2737 231.001 92.5516 230.954 92.8294C230.908 93.1073 230.885 93.3389 230.885 93.5241V105.368C230.885 105.484 230.885 105.611 230.885 105.75C230.885 105.866 230.896 105.993 230.92 106.132C230.943 106.363 231.128 106.746 231.476 107.278C231.824 107.764 232.404 108.007 233.216 108.007C233.633 108.007 234.004 107.915 234.329 107.73C234.677 107.521 234.92 107.29 235.059 107.035C235.222 106.757 235.326 106.502 235.373 106.271C235.419 106.039 235.442 105.738 235.442 105.368V93.5241C235.442 93.061 235.419 92.7368 235.373 92.5516C235.349 92.3663 235.233 92.1464 235.025 91.8917Z" fill="white"/>
<path d="M249.534 111.133L244.35 96.9974V111.133H241.01V87.8628H244.176L249.325 101.964V87.8628H252.664V111.133H249.534Z" fill="white"/>
<path d="M28.5062 78.6193V31.247L20.5146 37.2309V28.7537L28.5062 22.936H36.4145V78.6193H28.5062Z" fill="white"/>
<path d="M66.822 78.619H43.0972V71.3054L57.9147 42.5495C58.5807 41.2197 58.9137 39.8623 58.9137 38.4771V34.3216C58.9137 33.2135 58.5253 32.2717 57.7483 31.496C56.9714 30.6649 56.0279 30.2493 54.918 30.2493C53.919 30.2493 53.0033 30.6094 52.1709 31.3297C51.3939 32.05 51.0054 32.9365 51.0054 33.9892V38.8927H42.9307V34.9034C42.9307 32.7426 43.7354 30.1108 45.3448 27.008C47.0097 23.9607 50.3395 22.437 55.3342 22.437C58.4975 22.437 61.189 23.6282 63.4089 26.0107C65.6843 28.4486 66.822 31.2189 66.822 34.3216V39.3913C66.822 41.663 66.2115 43.9346 64.9906 46.2063L52.5038 70.7236H66.822V78.619Z" fill="white"/>
<path fill-rule="evenodd" clip-rule="evenodd" d="M127.815 188.532L103.184 196.702C102.095 197.063 101.806 198.465 102.663 199.226L122.062 216.437C122.919 217.198 124.28 216.749 124.513 215.628L129.745 190.247C129.978 189.124 128.905 188.171 127.815 188.532ZM181.121 133.735C161.131 133.735 148.162 148.091 141.776 155.558C141.776 155.558 146.664 165.668 149.398 167.172C149.398 167.172 162.109 146.574 181.121 146.574C187.826 146.574 195.224 148.768 200.744 153.708C206.265 158.648 210.394 166.325 210.394 179.205C210.394 186.953 207.837 194.507 203.427 199.865C199.017 205.222 193.032 208.568 184.721 208.568C175.762 208.568 168.662 206.006 161.832 200.551C155.003 195.097 148.547 186.507 142.333 174.629C139.144 168.534 133.999 158.661 125.945 150.07C117.892 141.479 106.41 133.997 91.6053 133.997C81.6874 133.997 71.3711 137.077 63.4788 144.474C55.5865 151.87 50.5916 163.409 50.5239 178.521C50.4103 203.883 69.6987 221.008 91.7364 221.008C107.597 221.008 118.269 211.239 118.269 211.239L109.649 201.711C109.649 201.711 102.332 208.168 91.7364 208.168C75.9392 208.168 63.2944 197.796 63.3805 178.58C63.4363 166.149 67.1752 158.62 72.2804 153.835C77.3857 149.05 84.3325 146.836 91.6053 146.836C102.172 146.836 110.027 151.877 116.558 158.843C123.088 165.809 127.773 174.53 130.936 180.575C137.651 193.411 144.959 203.514 153.799 210.574C162.639 217.634 173.116 221.407 184.721 221.407C196.735 221.407 206.8 215.986 213.361 208.016C219.922 200.046 223.254 189.71 223.254 179.205C223.254 163.414 217.617 151.568 209.328 144.15C201.038 136.732 190.583 133.735 181.121 133.735Z" fill="white"/>
</svg>
