<svg width="276" height="276" viewBox="0 0 276 276" fill="none" xmlns="http://www.w3.org/2000/svg">
<path fill-rule="evenodd" clip-rule="evenodd" d="M1.54087 0H274.459C275.313 0 276 0.686065 276 1.5383V274.462C276 275.314 275.313 276 274.459 276H1.54087C0.687242 276 0 275.314 0 274.462V1.5383C0 0.686065 0.687242 0 1.54087 0Z" fill="#E11484"/>
<path d="M89.0972 46.9513V23.6807H94.9417C96.4724 23.6807 97.7595 24.2132 98.8032 25.2783C99.8701 26.3434 100.404 27.6517 100.404 29.2031V31.3564C100.404 33.5098 99.4874 35.1539 97.6552 36.2885L101.204 46.9513H97.6552L94.5242 36.9831H92.4369V46.9513H89.0972ZM96.5071 33.3015C96.7159 33.0468 96.855 32.7573 96.9246 32.4332C97.0174 32.109 97.0638 31.7501 97.0638 31.3564V29.2031C97.0638 28.4853 96.8667 27.9064 96.4724 27.4664C96.0782 27.0033 95.5216 26.7718 94.8026 26.7718H92.4369V34.0309H94.7678C95.4636 34.0309 96.0433 33.7877 96.5071 33.3015Z" fill="white"/>
<path d="M112.621 43.617V46.9513H102.637V23.6807H112.621V26.7371H105.942V33.6141H111.786V36.7747H105.942V43.617H112.621Z" fill="white"/>
<path d="M119.505 23.6807C121.013 23.6807 122.3 24.2132 123.367 25.2783C124.457 26.3203 125.002 27.5938 125.002 29.0989V41.1857C125.002 42.8992 124.48 44.2884 123.436 45.3536C122.393 46.4187 121.048 46.9513 119.401 46.9513H114.217V23.6807H119.505ZM121.697 41.1857V29.0989C121.697 28.4505 121.453 27.9064 120.966 27.4664C120.503 27.0265 119.934 26.8066 119.262 26.8066H117.522V43.8601H119.157C120.85 43.8601 121.697 42.9686 121.697 41.1857Z" fill="white"/>
<path d="M138.439 44.52C137.929 45.3073 137.268 45.944 136.456 46.4303C135.667 46.9165 134.786 47.1597 133.812 47.1597C133.325 47.1597 132.838 47.0902 132.351 46.9513C131.887 46.8123 131.446 46.6387 131.029 46.4303C130.611 46.1987 130.24 45.944 129.916 45.6662C129.591 45.3651 129.347 45.0526 129.185 44.7284C128.837 44.0801 128.605 43.5128 128.489 43.0265C128.397 42.5403 128.35 42.0193 128.35 41.4636V23.6807H131.69V41.4636C131.69 41.6256 131.69 41.7762 131.69 41.9151C131.713 42.0308 131.736 42.1466 131.759 42.2624C131.783 42.4477 131.957 42.7718 132.281 43.2349C132.583 43.6517 133.104 43.8601 133.847 43.8601C134.519 43.8601 135.018 43.617 135.343 43.1307C135.69 42.6213 135.864 42.0656 135.864 41.4636V23.6807H139.204V41.4636C139.204 42.0193 139.146 42.5518 139.03 43.0613C138.914 43.5707 138.717 44.0569 138.439 44.52Z" fill="white"/>
<path d="M152.656 41.0824C152.656 41.8233 152.61 42.4601 152.517 42.9927C152.448 43.5253 152.216 44.1041 151.821 44.7293C151.613 45.0534 151.346 45.366 151.021 45.667C150.72 45.9449 150.372 46.1996 149.977 46.4312C149.606 46.6396 149.201 46.8132 148.76 46.9521C148.319 47.0911 147.89 47.1605 147.473 47.1605C146.429 47.1605 145.478 46.9405 144.62 46.5006C143.785 46.0607 143.17 45.505 142.776 44.8335C142.382 44.162 142.127 43.5368 142.011 42.9579C141.918 42.3791 141.872 41.7539 141.872 41.0824V29.0998C141.872 28.4514 141.929 27.8725 142.045 27.3631C142.185 26.8305 142.463 26.2633 142.88 25.6613C143.298 25.0592 143.889 24.5498 144.655 24.133C145.42 23.6931 146.22 23.4731 147.055 23.4731C148.655 23.4731 149.989 24.0057 151.056 25.0708C152.123 26.1128 152.656 27.4557 152.656 29.0998V30.3501H149.351V29.0998C149.351 28.4514 149.166 27.9072 148.794 27.4673C148.447 27.0274 147.925 26.8074 147.229 26.8074C146.58 26.8074 146.069 27.0274 145.698 27.4673C145.35 27.9072 145.176 28.4514 145.176 29.0998V41.9854C145.223 42.3327 145.385 42.7264 145.663 43.1663C145.988 43.6294 146.522 43.8609 147.264 43.8609C148.052 43.8609 148.574 43.6526 148.829 43.2358C149.084 42.819 149.235 42.518 149.282 42.3328C149.328 42.1244 149.351 41.8465 149.351 41.4992V40.3183H152.656L152.656 41.0824Z" fill="white"/>
<path d="M165.18 43.617V46.9513H155.195V23.6807H165.18V26.7371H158.5V33.6141H164.345V36.7747H158.5V43.617H165.18Z" fill="white"/>
<path d="M172.065 23.6807C173.573 23.6807 174.86 24.2132 175.927 25.2783C177.017 26.3203 177.562 27.5938 177.562 29.0989V41.1857C177.562 42.8992 177.04 44.2884 175.997 45.3536C174.953 46.4187 173.608 46.9513 171.961 46.9513H166.777V23.6807H172.065ZM174.257 41.1857V29.0989C174.257 28.4505 174.013 27.9064 173.526 27.4664C173.063 27.0265 172.494 26.8066 171.822 26.8066H170.082V43.8601H171.717C173.41 43.8601 174.257 42.9686 174.257 41.1857Z" fill="white"/>
<path d="M89.5825 79.0426V55.772H92.8874V79.0426H89.5825Z" fill="white"/>
<path d="M104.135 79.0426L98.9515 64.9066V79.0426H95.6118V55.772H98.7776L103.926 69.8733V55.772H107.266V79.0426H104.135Z" fill="white"/>
<path d="M119.308 75.7084V79.0426H109.323V55.772H119.308V58.8284H112.628V65.7054H118.473V68.8661H112.628V75.7084H119.308Z" fill="white"/>
<path d="M121.759 77.2364C121.226 76.6576 120.866 76.044 120.681 75.3957C120.518 74.7473 120.437 73.9832 120.437 73.1033V61.5375C120.437 59.8472 120.971 58.4347 122.037 57.3001C123.127 56.1424 124.496 55.5635 126.142 55.5635C127.627 55.5635 128.937 56.1076 130.074 57.1959C131.187 58.2842 131.743 59.5809 131.743 61.0859V73.1033C131.743 73.7748 131.709 74.2726 131.639 74.5968C131.593 74.9209 131.5 75.2451 131.361 75.5693L133.553 77.4101L131.709 79.633L129.621 77.9658C128.601 78.7994 127.372 79.2162 125.934 79.2162C125.168 79.2162 124.403 79.031 123.638 78.6605C122.895 78.29 122.269 77.8153 121.759 77.2364ZM127.291 72.235L128.404 73.1033V61.5375C128.404 60.7965 128.195 60.1713 127.777 59.6619C127.36 59.1293 126.78 58.8631 126.038 58.8631C125.574 58.8631 125.168 58.9789 124.82 59.2104C124.473 59.442 124.217 59.7198 124.055 60.044C123.916 60.3682 123.835 60.6229 123.812 60.8081C123.788 60.9702 123.777 61.2133 123.777 61.5375V73.1033V73.3464C123.777 74.0179 123.962 74.62 124.333 75.1525C124.728 75.6619 125.331 75.9282 126.142 75.9513C126.374 75.9513 126.653 75.8819 126.977 75.7429L125.447 74.4579L127.291 72.235Z" fill="white"/>
<path d="M144.474 76.6114C143.964 77.3986 143.303 78.0354 142.491 78.5217C141.703 79.0079 140.821 79.251 139.847 79.251C139.36 79.251 138.873 79.1816 138.386 79.0426C137.922 78.9037 137.482 78.7301 137.064 78.5217C136.647 78.2901 136.276 78.0354 135.951 77.7575C135.626 77.4565 135.383 77.1439 135.22 76.8198C134.872 76.1714 134.64 75.6041 134.524 75.1179C134.432 74.6316 134.385 74.1106 134.385 73.5549V55.772H137.725V73.5549C137.725 73.717 137.725 73.8675 137.725 74.0065C137.748 74.1222 137.771 74.238 137.795 74.3538C137.818 74.539 137.992 74.8632 138.316 75.3263C138.618 75.743 139.14 75.9514 139.882 75.9514C140.555 75.9514 141.053 75.7083 141.378 75.2221C141.726 74.7127 141.9 74.1569 141.9 73.5549V55.772H145.239V73.5549C145.239 74.1106 145.181 74.6432 145.066 75.1526C144.95 75.662 144.753 76.1483 144.474 76.6114Z" fill="white"/>
<path d="M146.566 79.0426L151.784 55.772H154.672L159.89 79.0426H156.307L155.368 74.0412H151.054L150.08 79.0426H146.566ZM151.645 70.95H154.776L153.211 62.4754L151.645 70.95Z" fill="white"/>
<path d="M171.574 79.0426H161.625V55.772H164.964V75.7084H171.574V79.0426Z" fill="white"/>
<path d="M172.29 79.0426V55.772H175.595V79.0426H172.29Z" fill="white"/>
<path d="M181.675 79.0426V58.8632H177.744V55.772H188.98V58.8632H184.98V79.0426H181.675Z" fill="white"/>
<path d="M190.056 79.0426V55.772H193.361V79.0426H190.056Z" fill="white"/>
<path d="M206.182 75.7084V79.0426H196.198V55.772H206.182V58.8284H199.503V65.7054H205.347V68.8661H199.503V75.7084H206.182Z" fill="white"/>
<path d="M210.362 73.2422C210.362 73.4738 210.362 73.6706 210.362 73.8327C210.362 73.9948 210.374 74.1337 210.397 74.2495C210.444 74.4811 210.617 74.8168 210.919 75.2567C211.244 75.7198 211.824 75.9513 212.659 75.9513C213.122 75.9513 213.551 75.8587 213.946 75.6735C214.34 75.4651 214.63 75.1988 214.815 74.8747C214.955 74.62 215.036 74.3769 215.059 74.1453C215.105 73.9137 215.128 73.7054 215.128 73.5201V73.2075V71.5751V71.2625C215.128 70.7531 215.036 70.3594 214.85 70.0816C214.665 69.7806 214.247 69.4448 213.598 69.0744C213.157 68.8428 212.369 68.5186 211.232 68.1019C210.096 67.6851 209.145 67.0252 208.379 66.1221C207.614 65.2191 207.231 63.9919 207.231 62.4405V61.3985C207.231 59.8008 207.765 58.4347 208.832 57.3001C209.922 56.1424 211.244 55.5635 212.798 55.5635C214.421 55.5635 215.766 56.1308 216.833 57.2654C217.923 58.4 218.468 59.7777 218.468 61.3985V62.4405H215.128V61.3985C215.128 61.2365 215.117 61.0859 215.094 60.947C215.094 60.8081 215.082 60.6807 215.059 60.565C215.036 60.4492 214.978 60.3103 214.885 60.1482C214.792 59.9861 214.664 59.7892 214.502 59.5577C214.177 59.0946 213.632 58.8631 212.867 58.8631C212.195 58.8631 211.638 59.1062 211.197 59.5924C210.78 60.0787 210.571 60.6807 210.571 61.3985V62.4405V62.7531C210.571 63.2162 210.641 63.5867 210.78 63.8646C210.942 64.1193 211.313 64.4087 211.893 64.7328C212.079 64.8255 212.357 64.9529 212.728 65.1149C213.122 65.2538 213.598 65.4275 214.154 65.6359C215.268 66.0064 216.265 66.6663 217.146 67.6156C218.028 68.565 218.468 69.8153 218.468 71.3667V73.2422C218.468 74.0526 218.387 74.7357 218.225 75.2915C218.086 75.8472 217.61 76.6576 216.798 77.7227C215.987 78.7415 214.63 79.2509 212.728 79.2509C210.71 79.2509 209.249 78.6026 208.345 77.3059C207.44 75.9861 206.988 74.6315 206.988 73.2422V72.4087H210.362V73.2422Z" fill="white"/>
<path d="M27.163 78.6184V31.246L19.1714 37.2299V28.7527L27.163 22.9351H35.0713V78.6184H27.163Z" fill="white"/>
<path d="M54.4086 78.7847C48.526 77.732 45.1129 74.2968 44.1694 68.4791V32.659C44.8909 28.2819 46.8056 25.3454 49.9134 23.8494C51.9668 22.9075 54.1034 22.4365 56.3233 22.4365C57.7107 22.4365 59.1535 22.6028 60.652 22.9352C62.6498 24.1541 64.2593 25.4562 65.4802 26.8413C66.7012 28.1711 67.5336 30.1103 67.9775 32.659V68.3129C67.2006 73.7427 64.3148 77.2057 59.32 78.7016H57.7385C57.461 78.7571 56.351 78.7847 54.4086 78.7847ZM55.241 70.8062C57.6829 70.8062 59.2368 69.6981 59.9028 67.4819V33.9056C59.5698 32.8529 59.209 31.9941 58.8206 31.3292C57.8771 30.6089 56.9614 30.2488 56.0735 30.2488C55.13 30.2488 54.3531 30.6089 53.7426 31.3292C53.1321 31.9941 52.6605 32.8529 52.3275 33.9056V67.3156C52.6605 69.0332 53.6316 70.1967 55.241 70.8062Z" fill="white"/>
<path fill-rule="evenodd" clip-rule="evenodd" d="M112.732 148.519V166.031H165.301V148.519H112.732ZM112.732 180.931V198.724H165.301V180.931H112.732ZM138.962 101.032L112.848 127.103H165.075L138.962 101.032ZM92.7187 147.199L66.6597 173.216L92.7187 199.232V147.199ZM185.314 147.308V198.971L211.187 173.14L185.314 147.308ZM113.332 219.812L138.885 245.324L164.438 219.812H113.332Z" fill="white"/>
</svg>
