<svg width="276" height="276" viewBox="0 0 276 276" fill="none" xmlns="http://www.w3.org/2000/svg">
<path fill-rule="evenodd" clip-rule="evenodd" d="M1.54082 0H274.459C275.313 0 276 0.686084 276 1.5383V274.462C276 275.314 275.313 276 274.459 276H1.54082C0.687208 276 0 275.314 0 274.462V1.5383C0 0.686084 0.687208 0 1.54082 0Z" fill="#EB1C2D"/>
<path d="M87.3124 47.9142L82.1288 33.7781V47.9142H78.7891V24.6436H81.9549L87.1036 38.7449V24.6436H90.4434V47.9142H87.3124Z" fill="white"/>
<path d="M94.0416 26.8326C94.575 26.0916 95.2476 25.5127 96.0593 25.0959C96.8943 24.656 97.7524 24.436 98.6337 24.436C99.4919 24.436 100.292 24.6097 101.034 24.957C101.8 25.3043 102.437 25.779 102.948 26.381C103.458 26.9831 103.806 27.6082 103.991 28.2566C104.177 28.8818 104.27 29.5648 104.27 30.3058V42.1495C104.27 42.8442 104.2 43.4578 104.061 43.9903C103.945 44.5229 103.667 45.1133 103.226 45.7617C102.808 46.41 102.194 46.9657 101.382 47.4288C100.594 47.8919 99.7122 48.1235 98.7381 48.1235C98.1815 48.1235 97.648 48.054 97.1378 47.9151C96.6276 47.753 96.1521 47.5446 95.7115 47.2899C95.2708 47.0352 94.8765 46.7458 94.5286 46.4216C94.2039 46.0974 93.9488 45.7616 93.7633 45.4143C93.4154 44.6965 93.2067 44.1177 93.1371 43.6777C93.0675 43.2378 93.0327 42.7284 93.0327 42.1495V30.3058C93.0327 29.6111 93.1023 28.9975 93.2414 28.465C93.4038 27.9093 93.6705 27.3651 94.0416 26.8326ZM100.512 28.6734C100.072 28.025 99.4687 27.7009 98.7033 27.7009C98.309 27.7009 97.9148 27.8166 97.5205 28.0482C97.1494 28.2566 96.8827 28.4997 96.7203 28.7776C96.5812 29.0554 96.4884 29.3333 96.442 29.6111C96.3957 29.889 96.3725 30.1206 96.3725 30.3058V42.1495C96.3725 42.2652 96.3725 42.3926 96.3725 42.5315C96.3725 42.6473 96.3841 42.7746 96.4073 42.9136C96.4304 43.1452 96.616 43.5272 96.9639 44.0598C97.3118 44.546 97.8916 44.7891 98.7033 44.7891C99.1208 44.7891 99.4919 44.6965 99.8166 44.5113C100.164 44.3029 100.408 44.0714 100.547 43.8167C100.71 43.5388 100.814 43.2841 100.86 43.0526C100.907 42.821 100.93 42.52 100.93 42.1495V30.3058C100.93 29.8427 100.907 29.5185 100.86 29.3333C100.837 29.148 100.721 28.9281 100.512 28.6734Z" fill="white"/>
<path d="M78.7891 80.0055V56.7349H84.2509H84.3205C85.0163 56.7349 85.6773 56.8854 86.3035 57.1864C86.9297 57.4643 87.4863 57.8347 87.9733 58.2978C88.4604 58.7609 88.8431 59.2935 89.1214 59.8955C89.4229 60.4744 89.5852 61.0764 89.6084 61.7016V65.0706V65.418C89.6084 66.1821 89.4577 66.8999 89.1562 67.5713C88.8779 68.2197 88.4952 68.787 88.0081 69.2732C87.5211 69.7595 86.9413 70.1415 86.2687 70.4194C85.6193 70.6973 84.9235 70.8362 84.1814 70.8362H83.8683H82.1288V80.0055H78.7891ZM85.8512 67.0157C86.06 66.8073 86.1875 66.5873 86.2339 66.3557C86.3035 66.1242 86.3383 65.8347 86.3383 65.4874V62.0489C86.3383 61.4006 86.1411 60.868 85.7469 60.4512C85.3526 60.0113 84.8192 59.7913 84.1466 59.7913H82.1288V67.6755H83.8683C84.3321 67.6755 84.7032 67.6408 84.9815 67.5713C85.283 67.4787 85.5729 67.2935 85.8512 67.0157Z" fill="white"/>
<path d="M93.526 58.9239C94.0594 58.183 94.732 57.6041 95.5437 57.1873C96.3787 56.7473 97.2368 56.5273 98.1181 56.5273C98.9762 56.5273 99.7764 56.701 100.519 57.0483C101.284 57.3956 101.922 57.8703 102.432 58.4724C102.942 59.0744 103.29 59.6996 103.476 60.3479C103.661 60.9731 103.754 61.6562 103.754 62.3972V74.2409C103.754 74.9355 103.684 75.5491 103.545 76.0816C103.429 76.6142 103.151 77.2047 102.71 77.853C102.293 78.5014 101.678 79.0571 100.866 79.5202C100.078 79.9833 99.1966 80.2148 98.2225 80.2148C97.6659 80.2148 97.1324 80.1453 96.6222 80.0064C96.112 79.8443 95.6365 79.6359 95.1958 79.3812C94.7552 79.1265 94.3609 78.8371 94.013 78.5129C93.6883 78.1887 93.4332 77.853 93.2477 77.5057C92.8998 76.7879 92.691 76.209 92.6215 75.769C92.5519 75.3291 92.5171 74.8197 92.5171 74.2409V62.3972C92.5171 61.7025 92.5867 61.0889 92.7258 60.5563C92.8882 60.0006 93.1549 59.4565 93.526 58.9239ZM99.9967 60.7647C99.5561 60.1164 98.9531 59.7922 98.1877 59.7922C97.7934 59.7922 97.3991 59.908 97.0049 60.1395C96.6338 60.3479 96.3671 60.591 96.2047 60.8689C96.0656 61.1468 95.9728 61.4246 95.9264 61.7025C95.88 61.9803 95.8568 62.2119 95.8568 62.3972V74.2409C95.8568 74.3566 95.8568 74.4839 95.8568 74.6229C95.8568 74.7386 95.8684 74.866 95.8916 75.005C95.9148 75.2365 96.1004 75.6186 96.4483 76.1511C96.7961 76.6374 97.376 76.8805 98.1877 76.8805C98.6052 76.8805 98.9763 76.7879 99.301 76.6026C99.6489 76.3942 99.8924 76.1627 100.032 75.908C100.194 75.6301 100.298 75.3754 100.345 75.1439C100.391 74.9123 100.414 74.6113 100.414 74.2409V62.3972C100.414 61.9341 100.391 61.6099 100.345 61.4246C100.321 61.2394 100.205 61.0194 99.9967 60.7647Z" fill="white"/>
<path d="M110.264 80.0055L105.498 56.7349H108.976L111.69 72.8854L114.438 56.7349H117.987L113.116 80.0055H110.264Z" fill="white"/>
<path d="M129.992 76.6712V80.0055H120.007V56.7349H129.992V59.7913H123.312V66.6683H129.157V69.829H123.312V76.6712H129.992Z" fill="white"/>
<path d="M131.57 80.0055V56.7349H137.414C138.945 56.7349 140.232 57.2674 141.276 58.3326C142.343 59.3977 142.876 60.706 142.876 62.2573V64.4107C142.876 66.5641 141.96 68.2081 140.128 69.3427L143.676 80.0055H140.128L136.997 70.0374H134.91V80.0055H131.57ZM138.98 66.3557C139.189 66.101 139.328 65.8116 139.397 65.4874C139.49 65.1633 139.537 64.8043 139.537 64.4107V62.2573C139.537 61.5395 139.339 60.9606 138.945 60.5207C138.551 60.0576 137.994 59.8261 137.275 59.8261H134.91V67.0851H137.24C137.936 67.0851 138.516 66.842 138.98 66.3557Z" fill="white"/>
<path d="M147.635 80.0055V59.8261H143.704V56.7349H154.94V59.8261H150.94V80.0055H147.635Z" fill="white"/>
<path d="M159.828 80.0055V70.0026L155.306 56.7349H158.785L161.498 65.8348L164.246 56.7349H167.76L163.133 70.0026V80.0055H159.828Z" fill="white"/>
<path d="M39.557 78.9475V31.5751L31.5654 37.559V29.0818L39.557 23.2642H47.4652V78.9475H39.557Z" fill="white"/>
<path fill-rule="evenodd" clip-rule="evenodd" d="M59.6058 131.925C59.6058 133.957 58.7971 135.907 57.3577 137.344C55.9183 138.781 53.966 139.588 51.9303 139.588C49.8947 139.588 47.9424 138.781 46.503 137.344C45.0636 135.907 44.2549 133.957 44.2549 131.925C44.2549 130.919 44.4534 129.922 44.8392 128.993C45.2249 128.063 45.7902 127.218 46.503 126.507C47.2157 125.795 48.0618 125.231 48.9931 124.846C49.9243 124.46 50.9224 124.262 51.9303 124.262C52.9383 124.262 53.9364 124.46 54.8676 124.846C55.7989 125.231 56.645 125.795 57.3577 126.507C58.0705 127.218 58.6358 128.063 59.0215 128.993C59.4073 129.922 59.6058 130.919 59.6058 131.925Z" fill="white"/>
<path fill-rule="evenodd" clip-rule="evenodd" d="M124.604 136.168C124.604 138.2 123.796 140.149 122.356 141.586C120.917 143.023 118.965 143.831 116.929 143.831C114.893 143.831 112.941 143.023 111.502 141.586C110.062 140.149 109.253 138.2 109.253 136.168C109.253 134.135 110.062 132.186 111.501 130.749C112.941 129.312 114.893 128.505 116.929 128.505C117.937 128.505 118.935 128.703 119.866 129.088C120.797 129.473 121.644 130.038 122.356 130.749C123.069 131.461 123.634 132.306 124.02 133.235C124.406 134.165 124.604 135.162 124.604 136.168Z" fill="white"/>
<path fill-rule="evenodd" clip-rule="evenodd" d="M167.648 136.168C167.648 138.2 166.84 140.149 165.4 141.586C163.961 143.023 162.008 143.831 159.973 143.831C157.937 143.831 155.985 143.023 154.545 141.586C153.106 140.149 152.297 138.2 152.297 136.168C152.297 134.135 153.106 132.186 154.545 130.749C155.985 129.312 157.937 128.505 159.973 128.505C160.981 128.505 161.979 128.703 162.91 129.088C163.841 129.473 164.687 130.038 165.4 130.749C166.113 131.461 166.678 132.306 167.064 133.235C167.45 134.165 167.648 135.162 167.648 136.168Z" fill="white"/>
<path fill-rule="evenodd" clip-rule="evenodd" d="M227.935 132.101C227.935 134.134 227.126 136.083 225.687 137.52C224.247 138.957 222.295 139.764 220.259 139.764C218.224 139.764 216.272 138.957 214.832 137.52C213.393 136.083 212.584 134.134 212.584 132.101C212.584 131.095 212.783 130.099 213.168 129.169C213.554 128.239 214.119 127.394 214.832 126.683C215.545 125.971 216.391 125.407 217.322 125.022C218.253 124.637 219.251 124.438 220.259 124.438C222.295 124.438 224.247 125.246 225.687 126.683C227.126 128.12 227.935 130.069 227.935 132.101Z" fill="white"/>
<path fill-rule="evenodd" clip-rule="evenodd" d="M88.8891 170.476C88.8891 172.102 88.2422 173.661 87.0907 174.811C85.9391 175.961 84.3773 176.606 82.7488 176.606C81.1202 176.606 79.5584 175.961 78.4069 174.811C77.2553 173.661 76.6084 172.102 76.6084 170.476C76.6084 169.671 76.7672 168.874 77.0758 168.13C77.3844 167.386 77.8367 166.711 78.4069 166.141C78.977 165.572 79.654 165.12 80.3989 164.812C81.1439 164.504 81.9424 164.346 82.7488 164.346C83.5551 164.346 84.3536 164.504 85.0986 164.812C85.8436 165.12 86.5205 165.572 87.0907 166.141C87.6609 166.711 88.1131 167.386 88.4217 168.13C88.7303 168.874 88.8891 169.671 88.8891 170.476Z" fill="white"/>
<path fill-rule="evenodd" clip-rule="evenodd" d="M197.605 170.476C197.605 171.281 197.446 172.078 197.138 172.822C196.829 173.566 196.377 174.242 195.806 174.811C195.236 175.38 194.559 175.832 193.814 176.14C193.069 176.448 192.271 176.606 191.465 176.606C189.836 176.606 188.274 175.961 187.123 174.811C185.971 173.661 185.324 172.102 185.324 170.476C185.324 169.671 185.483 168.874 185.792 168.13C186.1 167.386 186.552 166.711 187.123 166.141C187.693 165.572 188.37 165.12 189.115 164.812C189.86 164.504 190.658 164.346 191.465 164.346C192.271 164.346 193.069 164.504 193.814 164.812C194.559 165.12 195.236 165.572 195.806 166.141C196.377 166.711 196.829 167.386 197.138 168.13C197.446 168.874 197.605 169.671 197.605 170.476Z" fill="white"/>
<path fill-rule="evenodd" clip-rule="evenodd" d="M218.723 178.906V210.265C218.723 215.63 210.811 215.654 210.811 210.265V155.327C210.811 153.341 208.095 153.177 208.095 155.327V173.836C208.095 178.215 202.309 178.398 202.309 173.836V151.319C202.309 146.71 205.803 142.713 210.929 142.713H229.586C234.712 142.713 238.207 146.71 238.207 151.319V173.836C238.207 178.398 232.421 178.215 232.421 173.836V155.327C232.421 153.177 229.705 153.341 229.705 155.327V210.265C229.705 215.654 221.793 215.63 221.793 210.265V178.906C221.793 177.17 218.723 177.111 218.723 178.906Z" fill="white"/>
<path fill-rule="evenodd" clip-rule="evenodd" d="M42.3455 142.713C37.2196 142.713 33.7259 146.709 33.7259 151.318V173.835C33.7259 175.382 34.3934 176.371 35.2729 176.848L28.295 211.677C27.8857 213.72 30.6232 214.167 30.985 212.186L37.4024 177.051C38.5436 176.7 39.5099 175.623 39.5099 173.835V155.327C39.5099 153.177 42.2254 153.34 42.2254 155.327V210.264C42.2254 215.653 50.1388 215.629 50.1388 210.264V178.905C50.1388 177.11 53.2074 177.169 53.2074 178.905V210.264C53.2074 215.629 61.1208 215.653 61.1208 210.264V155.327C61.1208 153.34 63.8363 153.177 63.8363 155.327V173.835C63.8363 178.214 69.6203 178.397 69.6203 173.835V151.318C69.6203 146.709 66.1266 142.713 61.0007 142.713H42.3455Z" fill="white"/>
<path fill-rule="evenodd" clip-rule="evenodd" d="M115.569 188.275V210.476C115.569 215.974 107.884 215.883 107.884 210.476V188.275H100.519L108.866 158.698C109.244 157.362 107.044 156.371 106.493 158.127L101.419 174.304C100.219 178.129 95.0755 176.772 96.4271 172.343L102.81 151.427C103.539 149.038 105.979 147.178 108.621 147.178H124.911C127.553 147.178 129.993 149.038 130.722 151.427L137.105 172.343C138.457 176.772 133.313 178.129 132.113 174.304L127.039 158.127C126.488 156.371 124.288 157.362 124.666 158.698L133.013 188.275H125.648V210.476C125.648 215.883 117.963 215.974 117.963 210.476V188.275H115.569Z" fill="white"/>
<path fill-rule="evenodd" clip-rule="evenodd" d="M158.855 188.275V210.476C158.855 215.974 151.17 215.883 151.17 210.476V188.275H143.805L152.152 158.698C152.529 157.362 150.329 156.371 149.779 158.127L144.705 174.304C143.505 178.129 138.361 176.772 139.713 172.343L146.096 151.427C146.825 149.038 149.265 147.178 151.907 147.178H168.197C170.838 147.178 173.278 149.038 174.007 151.427L180.391 172.343C181.742 176.772 176.598 178.129 175.398 174.304L170.325 158.127C169.774 156.371 167.574 157.362 167.951 158.698L176.299 188.275H168.933V210.476C168.933 215.883 161.249 215.974 161.249 210.476V188.275H158.855Z" fill="white"/>
<path fill-rule="evenodd" clip-rule="evenodd" d="M192.94 201.757V210.989C192.94 214.91 198.342 215.4 198.342 210.989V188.97C198.342 187.803 199.594 187.768 200.019 188.888L202.848 196.34C203.812 198.878 206.775 197.798 205.713 195.197L200.101 181.453C199.614 180.261 198.426 179.288 196.828 179.288H186.325C184.727 179.288 183.538 180.261 183.052 181.453L177.44 195.197C176.378 197.798 179.341 198.878 180.304 196.34L183.133 188.888C183.559 187.768 184.811 187.803 184.811 188.97V210.989C184.811 215.4 190.212 214.91 190.212 210.989V201.757C190.212 200.119 192.94 200.003 192.94 201.757Z" fill="white"/>
<path fill-rule="evenodd" clip-rule="evenodd" d="M81.6386 202.319V211.75C81.6386 215.139 76.6969 215.711 76.6969 211.75V201.375H73.2813L76.2609 190.565C76.7731 188.707 76.3794 186.809 75.4615 185.196L70.3018 176.127C68.7553 173.409 72.5188 171.895 73.7174 173.805L77.4963 179.827C78.0548 180.717 78.7479 180.625 79.6038 180.625H86.6495C87.5054 180.625 88.1984 180.717 88.757 179.827L92.5359 173.805C93.7344 171.895 97.498 173.409 95.9515 176.127L90.7918 185.196C89.8738 186.809 89.4802 188.707 89.9924 190.565L92.9719 201.375H89.5564V211.75C89.5564 215.711 84.6147 215.139 84.6147 211.75V202.319C84.6147 200.187 81.6386 200.246 81.6386 202.319Z" fill="white"/>
</svg>
