<svg width="276" height="276" viewBox="0 0 276 276" fill="none" xmlns="http://www.w3.org/2000/svg">
<path fill-rule="evenodd" clip-rule="evenodd" d="M1.54081 0H274.459C275.313 0 276 0.686084 276 1.5383V274.462C276 275.314 275.313 276 274.459 276H1.54081C0.687204 276 0 275.314 0 274.462V1.5383C0 0.686084 0.687204 0 1.54081 0Z" fill="#279B48"/>
<path d="M91.9375 45.4843C91.4041 46.3179 90.72 46.9662 89.885 47.4293C89.0501 47.8924 88.134 48.1239 87.1367 48.1239C86.2554 48.1239 85.3972 47.9156 84.5623 47.4988C83.7505 47.082 83.1127 46.5726 82.6489 45.9705C82.2082 45.3454 81.9067 44.7202 81.7444 44.095C81.6052 43.4698 81.5356 42.7636 81.5356 41.9763V30.341C81.5356 29.7621 81.5936 29.1833 81.7095 28.6044C81.8719 28.0255 82.3009 27.2035 82.9967 26.1384C83.7157 25.0038 85.1305 24.4365 87.241 24.4365C88.1687 24.4365 89.0384 24.6565 89.8502 25.0964C90.6619 25.5364 91.2765 26.0805 91.694 26.7289C92.1347 27.3541 92.413 27.9561 92.5289 28.5349C92.6681 29.0907 92.7377 29.6927 92.7377 30.341V31.3135H89.4327V30.341C89.4327 30.1558 89.4211 29.9937 89.3978 29.8548C89.3978 29.6927 89.3862 29.5538 89.363 29.438C89.3397 29.2296 89.1658 28.8938 88.8411 28.4307C88.5164 27.9676 87.9714 27.7361 87.2061 27.7361C86.3016 27.7361 85.6985 27.9792 85.397 28.4655C85.1187 28.9517 84.9564 29.3106 84.91 29.5422C84.8637 29.7737 84.8405 30.04 84.8405 30.341V41.9763C84.8405 42.2079 84.8405 42.4047 84.8405 42.5668C84.8405 42.7289 84.8521 42.8678 84.8753 42.9836C84.8986 43.1688 85.0725 43.5277 85.3971 44.0603C85.6987 44.5465 86.2901 44.7896 87.1714 44.7896C88.076 44.7896 88.6557 44.5465 88.9109 44.0603C89.05 43.8056 89.1544 43.5972 89.224 43.4351C89.2935 43.2498 89.34 43.0878 89.3632 42.9489C89.4095 42.8099 89.4327 42.671 89.4327 42.532C89.4327 42.3699 89.4327 42.1847 89.4327 41.9763V37.9126H86.754V34.9951H92.7377V41.9763C92.7377 42.4626 92.726 42.8794 92.7028 43.2267C92.6796 43.5509 92.6332 43.8403 92.5636 44.095C92.494 44.3497 92.4012 44.5928 92.2853 44.8244C92.1925 45.0328 92.0767 45.2527 91.9375 45.4843Z" fill="white"/>
<path d="M96.4185 26.8331C96.952 26.0921 97.6246 25.5132 98.4363 25.0964C99.2712 24.6565 100.129 24.4365 101.011 24.4365C101.869 24.4365 102.669 24.6102 103.411 24.9575C104.176 25.3048 104.814 25.7795 105.324 26.3815C105.835 26.9836 106.183 27.6087 106.368 28.2571C106.554 28.8822 106.647 29.5653 106.647 30.3063V42.15C106.647 42.8446 106.577 43.4583 106.438 43.9908C106.322 44.5234 106.044 45.1138 105.603 45.7622C105.185 46.4105 104.571 46.9662 103.759 47.4293C102.97 47.8924 102.089 48.1239 101.115 48.1239C100.558 48.1239 100.025 48.0545 99.5148 47.9156C99.0045 47.7535 98.5291 47.5451 98.0884 47.2904C97.6477 47.0357 97.2535 46.7462 96.9056 46.4221C96.5809 46.0979 96.3258 45.7621 96.1402 45.4148C95.7923 44.697 95.5836 44.1182 95.514 43.6782C95.4445 43.2383 95.4097 42.7289 95.4097 42.15V30.3063C95.4097 29.6116 95.4792 28.998 95.6184 28.4655C95.7808 27.9097 96.0475 27.3656 96.4185 26.8331ZM102.889 28.6739C102.449 28.0255 101.846 27.7014 101.08 27.7014C100.686 27.7014 100.292 27.8171 99.8974 28.0487C99.5263 28.2571 99.2596 28.5002 99.0973 28.7781C98.9581 29.0559 98.8654 29.3338 98.819 29.6116C98.7726 29.8895 98.7495 30.121 98.7495 30.3063V42.15C98.7495 42.2657 98.7495 42.3931 98.7495 42.532C98.7495 42.6478 98.7611 42.7751 98.7843 42.9141C98.8076 43.1457 98.9931 43.5277 99.3409 44.0603C99.6888 44.5465 100.269 44.7896 101.08 44.7896C101.498 44.7896 101.869 44.697 102.194 44.5118C102.541 44.3034 102.785 44.0718 102.924 43.8171C103.087 43.5393 103.191 43.2846 103.237 43.053C103.284 42.8215 103.307 42.5205 103.307 42.15V30.3063C103.307 29.8432 103.284 29.519 103.237 29.3338C103.214 29.1485 103.098 28.9286 102.889 28.6739Z" fill="white"/>
<path d="M110.491 26.8331C111.025 26.0921 111.697 25.5132 112.509 25.0964C113.344 24.6565 114.202 24.4365 115.083 24.4365C115.942 24.4365 116.742 24.6102 117.484 24.9575C118.249 25.3048 118.887 25.7795 119.397 26.3815C119.907 26.9836 120.255 27.6087 120.441 28.2571C120.626 28.8822 120.719 29.5653 120.719 30.3063V42.15C120.719 42.8446 120.65 43.4583 120.511 43.9908C120.395 44.5234 120.116 45.1138 119.676 45.7622C119.258 46.4105 118.643 46.9662 117.832 47.4293C117.043 47.8924 116.162 48.1239 115.188 48.1239C114.631 48.1239 114.098 48.0545 113.588 47.9156C113.077 47.7535 112.602 47.5451 112.161 47.2904C111.72 47.0357 111.326 46.7462 110.978 46.4221C110.654 46.0979 110.399 45.7621 110.213 45.4148C109.865 44.697 109.656 44.1182 109.587 43.6782C109.517 43.2383 109.482 42.7289 109.482 42.15V30.3063C109.482 29.6116 109.552 28.998 109.691 28.4655C109.854 27.9097 110.12 27.3656 110.491 26.8331ZM116.962 28.6739C116.521 28.0255 115.918 27.7014 115.153 27.7014C114.759 27.7014 114.364 27.8171 113.97 28.0487C113.599 28.2571 113.332 28.5002 113.17 28.7781C113.031 29.0559 112.938 29.3338 112.892 29.6116C112.845 29.8895 112.822 30.121 112.822 30.3063V42.15C112.822 42.2657 112.822 42.3931 112.822 42.532C112.822 42.6478 112.834 42.7751 112.857 42.9141C112.88 43.1457 113.066 43.5277 113.414 44.0603C113.762 44.5465 114.341 44.7896 115.153 44.7896C115.571 44.7896 115.942 44.697 116.266 44.5118C116.614 44.3034 116.858 44.0718 116.997 43.8171C117.159 43.5393 117.264 43.2846 117.31 43.053C117.356 42.8215 117.38 42.5205 117.38 42.15V30.3063C117.38 29.8432 117.356 29.519 117.31 29.3338C117.287 29.1485 117.171 28.9286 116.962 28.6739Z" fill="white"/>
<path d="M129.088 24.6445C130.596 24.6445 131.883 25.1771 132.95 26.2422C134.04 27.2842 134.585 28.5577 134.585 30.0628V42.1496C134.585 43.8631 134.063 45.2524 133.019 46.3175C131.976 47.3826 130.631 47.9152 128.984 47.9152H123.8V24.6445H129.088ZM131.28 42.1496V30.0628C131.28 29.4144 131.036 28.8703 130.549 28.4304C130.086 27.9904 129.517 27.7705 128.845 27.7705H127.105V44.824H128.74C130.433 44.824 131.28 43.9325 131.28 42.1496Z" fill="white"/>
<path d="M140.956 47.9152V24.6445H144.261V34.578H148.505V24.6445H151.81V47.9152H148.505V37.5302H144.261V47.9152H140.956Z" fill="white"/>
<path d="M164.885 44.5809V47.9152H154.901V24.6445H164.885V27.701H158.206V34.578H164.05V37.7386H158.206V44.5809H164.885Z" fill="white"/>
<path d="M165.382 47.9152L170.601 24.6445H173.488L178.707 47.9152H175.123L174.184 42.9137H169.87L168.896 47.9152H165.382ZM170.462 39.8225H173.593L172.027 31.3479L170.462 39.8225Z" fill="white"/>
<path d="M190.39 47.9152H180.44V24.6445H183.78V44.5809H190.39V47.9152Z" fill="white"/>
<path d="M191.899 47.9152V27.7357H187.968V24.6445H199.205V27.7357H195.204V47.9152H191.899Z" fill="white"/>
<path d="M200.992 47.9152V24.6445H204.297V34.578H208.541V24.6445H211.846V47.9152H208.541V37.5302H204.297V47.9152H200.992Z" fill="white"/>
<path d="M80.0049 80.0065L85.2232 56.7358H88.1107L93.3291 80.0065H89.7458L88.8065 75.0051H84.4926L83.5185 80.0065H80.0049ZM85.084 71.9139H88.2151L86.6496 63.4392L85.084 71.9139Z" fill="white"/>
<path d="M103.552 80.0065L98.3685 65.8705V80.0065H95.0288V56.7358H98.1946L103.343 70.8372V56.7358H106.683V80.0065H103.552Z" fill="white"/>
<path d="M115.605 56.7358C117.112 56.7358 118.4 57.2684 119.466 58.3335C120.556 59.3755 121.101 60.649 121.101 62.1541V74.241C121.101 75.9544 120.58 77.3437 119.536 78.4088C118.492 79.4739 117.147 80.0065 115.5 80.0065H110.317V56.7358H115.605ZM117.797 74.241V62.1541C117.797 61.5058 117.553 60.9616 117.066 60.5217C116.602 60.0817 116.034 59.8618 115.361 59.8618H113.622V76.9153H115.257C116.95 76.9153 117.797 76.0239 117.797 74.241Z" fill="white"/>
<path d="M138.297 80.0065L135.548 65.8357L132.87 80.0065H129.773L126.399 56.7358H129.947L131.617 70.8024L134.296 56.7358H136.766L139.514 70.8024L141.184 56.7358H144.698L141.428 80.0065H138.297Z" fill="white"/>
<path d="M156.405 76.6722V80.0065H146.42V56.7358H156.405V59.7923H149.725V66.6693H155.57V69.83H149.725V76.6722H156.405Z" fill="white"/>
<path d="M167.607 80.0065H157.658V56.7358H160.998V76.6722H167.607V80.0065Z" fill="white"/>
<path d="M178.529 80.0065H168.58V56.7358H171.919V76.6722H178.529V80.0065Z" fill="white"/>
<path d="M189.442 56.7358C190.16 56.7358 190.833 56.8864 191.459 57.1874C192.155 57.5115 192.862 58.0325 193.581 58.7503C194.347 59.4913 194.729 60.649 194.729 62.2236V63.9949C194.729 65.7778 194.022 67.0282 192.607 67.746C194.022 68.5796 194.729 69.8762 194.729 71.636V74.3451C194.729 75.9892 194.196 77.3437 193.129 78.4088C192.085 79.4739 190.74 80.0065 189.094 80.0065H183.945V56.7358H189.442ZM191.424 63.6476V62.2236C191.424 61.5058 191.216 60.9384 190.798 60.5217C190.381 60.0817 189.824 59.8618 189.128 59.8618H187.25V66.2873H189.233C189.998 66.2873 190.555 66.0557 190.903 65.5926C191.251 65.1063 191.424 64.458 191.424 63.6476ZM191.424 74.3451V71.636C191.424 70.895 191.216 70.3162 190.798 69.8994C190.404 69.4595 189.847 69.2395 189.128 69.2395H187.25V76.7069H189.163C189.836 76.7069 190.381 76.487 190.798 76.047C191.216 75.584 191.424 75.0166 191.424 74.3451Z" fill="white"/>
<path d="M207.204 76.6722V80.0065H197.219V56.7358H207.204V59.7923H200.524V66.6693H206.369V69.83H200.524V76.6722H207.204Z" fill="white"/>
<path d="M208.685 80.0065V56.7358H211.99V80.0065H208.685Z" fill="white"/>
<path d="M223.349 80.0065L218.165 65.8705V80.0065H214.825V56.7358H217.991L223.14 70.8372V56.7358H226.48V80.0065H223.349Z" fill="white"/>
<path d="M238.69 77.5751C238.157 78.4087 237.473 79.0571 236.638 79.5202C235.803 79.9833 234.887 80.2148 233.89 80.2148C233.008 80.2148 232.15 80.0064 231.315 79.5896C230.503 79.1728 229.866 78.6634 229.402 78.0614C228.961 77.4362 228.66 76.811 228.497 76.1858C228.358 75.5606 228.289 74.8544 228.289 74.0672V62.4318C228.289 61.853 228.347 61.2741 228.462 60.6953C228.625 60.1164 229.054 59.2944 229.75 58.2292C230.469 57.0946 231.883 56.5273 233.994 56.5273C234.922 56.5273 235.791 56.7473 236.603 57.1873C237.415 57.6272 238.029 58.1714 238.447 58.8197C238.888 59.4449 239.166 60.0469 239.282 60.6258C239.421 61.1815 239.491 61.7835 239.491 62.4318V63.4044H236.186V62.4318C236.186 62.2466 236.174 62.0845 236.151 61.9456C236.151 61.7835 236.139 61.6446 236.116 61.5288C236.093 61.3204 235.919 60.9847 235.594 60.5216C235.269 60.0585 234.724 59.8269 233.959 59.8269C233.054 59.8269 232.451 60.0701 232.15 60.5563C231.872 61.0426 231.709 61.4015 231.663 61.633C231.617 61.8646 231.593 62.1308 231.593 62.4318V74.0672C231.593 74.2987 231.593 74.4956 231.593 74.6576C231.593 74.8197 231.605 74.9587 231.628 75.0744C231.651 75.2597 231.825 75.6186 232.15 76.1511C232.452 76.6374 233.043 76.8805 233.924 76.8805C234.829 76.8805 235.409 76.6374 235.664 76.1511C235.803 75.8964 235.907 75.688 235.977 75.526C236.046 75.3407 236.093 75.1786 236.116 75.0397C236.162 74.9007 236.186 74.7618 236.186 74.6229C236.186 74.4608 236.186 74.2755 236.186 74.0672V70.0035H233.507V67.086H239.491V74.0672C239.491 74.5534 239.479 74.9702 239.456 75.3176C239.432 75.6417 239.386 75.9311 239.317 76.1858C239.247 76.4405 239.154 76.6837 239.038 76.9152C238.945 77.1236 238.83 77.3436 238.69 77.5751Z" fill="white"/>
<path d="M54.6207 66.1478V67.1452C54.6207 67.533 54.5929 67.9763 54.5374 68.4749C54.5374 68.9182 54.4541 69.583 54.2876 70.4695C53.5107 73.129 52.04 75.2899 49.8756 76.9521C47.7668 78.6143 45.2972 79.4453 42.4669 79.4453C40.247 79.4453 38.1381 78.7805 36.1402 77.4507C34.1423 76.0656 32.8659 74.7081 32.3109 73.3783C31.978 72.658 31.7004 72.0209 31.4785 71.4669C31.312 70.9128 31.1732 70.3864 31.0622 69.8878C30.9513 69.3891 30.868 68.8627 30.8125 68.3087C30.8125 67.6992 30.8125 66.9789 30.8125 66.1478V62.9066H38.804V67.4776C38.915 68.1979 39.2203 69.0013 39.7198 69.8878C40.2747 70.8851 41.2737 71.3837 42.7166 71.3837C44.1595 71.3837 45.1862 70.8851 45.7966 69.8878C46.4071 68.8905 46.7123 67.6438 46.7123 66.1478V57.5876C46.6568 56.5348 46.4348 55.7315 46.0464 55.1774C45.7134 54.6233 45.2971 54.2355 44.7977 54.0139C44.2982 53.7368 43.771 53.5983 43.216 53.5983C42.6611 53.5429 42.1616 53.5151 41.7176 53.5151H40.3025V46.4508H41.7176C45.0474 46.4508 46.7123 44.8995 46.7123 41.7967V35.1479C46.7123 34.4831 46.6569 33.929 46.5459 33.4858C46.5459 33.3195 46.4627 33.0702 46.2962 32.7378C46.1297 32.4053 45.8799 32.0729 45.547 31.7404C45.2695 31.408 44.9088 31.131 44.4648 30.9093C44.0208 30.6877 43.4936 30.5769 42.8831 30.5769C41.4957 30.5769 40.469 31.0202 39.803 31.9067C39.1371 32.7378 38.8041 33.8182 38.8041 35.1479V39.2203H30.8126V35.1479C30.8126 31.6573 31.9503 28.7208 34.2257 26.3384C36.4455 23.9559 39.3313 22.7646 42.8831 22.7646C44.8255 22.7646 46.6847 23.2633 48.4606 24.2606C50.292 25.2579 51.6239 26.4214 52.4563 27.7512C53.3442 29.081 53.927 30.3276 54.2045 31.4911C54.482 32.6547 54.6207 33.8736 54.6207 35.1479V41.6305C54.6207 45.2319 53.0391 47.9745 49.8757 49.8583C51.6516 51.1327 52.8725 52.407 53.5385 53.6813C54.2599 54.9003 54.6207 56.5625 54.6207 58.6679V66.1478Z" fill="white"/>
<path d="M50.1836 180.984H95.8149L111.848 145.893L119.864 199.453L138.98 165.182L150.49 230.234L187.489 108.339L204.549 143.43" stroke="white" stroke-width="3.4" stroke-linecap="round" stroke-linejoin="round"/>
<path fill-rule="evenodd" clip-rule="evenodd" d="M210.387 200.867C210.387 200.867 222.947 188.11 229.282 181.786C231.229 179.841 232.77 176.862 232.77 173.297C232.77 167.007 230.053 158.641 220.707 158.641C215.386 158.641 210.944 163.758 210.46 164.3C209.733 165.115 208.89 165.075 208.279 164.3C207.829 163.73 203.353 158.641 198.032 158.641C188.686 158.641 185.969 167.007 185.969 173.297C185.969 176.862 187.51 179.841 189.457 181.786C195.792 188.11 208.352 200.867 208.352 200.867C209.042 201.599 209.588 201.613 210.387 200.867Z" fill="white"/>
</svg>
