<svg width="276" height="276" viewBox="0 0 276 276" fill="none" xmlns="http://www.w3.org/2000/svg">
<path fill-rule="evenodd" clip-rule="evenodd" d="M1.54081 0H274.459C275.313 0 276 0.686065 276 1.5383V274.462C276 275.314 275.313 276 274.459 276H1.54081C0.687204 276 0 275.314 0 274.462V1.5383C0 0.686065 0.687204 0 1.54081 0Z" fill="#F36D25"/>
<path d="M66.4814 46.9513V23.6807H69.7864V46.9513H66.4814Z" fill="white"/>
<path d="M79.6258 46.9513L74.4423 32.8153V46.9513H71.1025V23.6807H74.2683L79.4171 37.7819V23.6807H82.7568V46.9513H79.6258Z" fill="white"/>
<path d="M89.6869 23.6807C91.1944 23.6807 92.4816 24.2132 93.5484 25.2783C94.6385 26.3203 95.1835 27.5938 95.1835 29.0989V41.1857C95.1835 42.8992 94.6617 44.2884 93.618 45.3536C92.5743 46.4187 91.2292 46.9513 89.5825 46.9513H84.3989V23.6807H89.6869ZM91.8786 41.1857V29.0989C91.8786 28.4505 91.635 27.9064 91.148 27.4664C90.6842 27.0265 90.1159 26.8066 89.4433 26.8066H87.7038V43.8601H89.339C91.032 43.8601 91.8786 42.9686 91.8786 41.1857Z" fill="white"/>
<path d="M107.187 44.52C106.677 45.3073 106.016 45.944 105.204 46.4303C104.415 46.9165 103.534 47.1597 102.56 47.1597C102.073 47.1597 101.586 47.0902 101.099 46.9513C100.635 46.8123 100.194 46.6387 99.777 46.4303C99.3595 46.1987 98.9884 45.944 98.6637 45.6662C98.339 45.3651 98.0955 45.0526 97.9331 44.7284C97.5852 44.0801 97.3533 43.5128 97.2374 43.0265C97.1446 42.5403 97.0981 42.0193 97.0981 41.4636V23.6807H100.438V41.4636C100.438 41.6256 100.438 41.7762 100.438 41.9151C100.461 42.0308 100.484 42.1466 100.507 42.2624C100.531 42.4477 100.705 42.7718 101.029 43.2349C101.331 43.6517 101.853 43.8601 102.595 43.8601C103.267 43.8601 103.766 43.617 104.091 43.1307C104.439 42.6213 104.613 42.0656 104.613 41.4636V23.6807H107.952V41.4636C107.952 42.0193 107.894 42.5518 107.778 43.0613C107.662 43.5707 107.465 44.0569 107.187 44.52Z" fill="white"/>
<path d="M112.621 41.1514C112.621 41.3829 112.621 41.5797 112.621 41.7418C112.621 41.9039 112.633 42.0429 112.656 42.1586C112.702 42.3902 112.876 42.7259 113.178 43.1658C113.503 43.6289 114.082 43.8605 114.917 43.8605C115.381 43.8605 115.81 43.7679 116.205 43.5826C116.599 43.3742 116.889 43.108 117.074 42.7838C117.213 42.5291 117.295 42.286 117.318 42.0544C117.364 41.8229 117.387 41.6144 117.387 41.4292V41.1166V39.4842V39.1716C117.387 38.6622 117.294 38.2686 117.109 37.9907C116.923 37.6897 116.506 37.354 115.857 36.9835C115.416 36.7519 114.627 36.4278 113.491 36.011C112.354 35.5942 111.404 34.9343 110.638 34.0312C109.873 33.1282 109.49 31.901 109.49 30.3496V29.3077C109.49 27.71 110.024 26.3438 111.09 25.2092C112.18 24.0515 113.502 23.4727 115.056 23.4727C116.68 23.4727 118.025 24.0399 119.092 25.1745C120.182 26.3091 120.727 27.6868 120.727 29.3077V30.3496H117.387V29.3077C117.387 29.1456 117.376 28.995 117.352 28.8561C117.352 28.7172 117.341 28.5899 117.318 28.4741C117.294 28.3584 117.236 28.2194 117.144 28.0573C117.051 27.8952 116.923 27.6984 116.761 27.4668C116.436 27.0037 115.891 26.7722 115.126 26.7722C114.453 26.7722 113.897 27.0153 113.456 27.5016C113.039 27.9878 112.83 28.5898 112.83 29.3077V30.3496V30.6622C112.83 31.1253 112.899 31.4958 113.039 31.7736C113.201 32.0283 113.572 32.3178 114.152 32.6419C114.337 32.7346 114.616 32.862 114.987 33.024C115.381 33.163 115.856 33.3366 116.413 33.545C117.526 33.9155 118.524 34.5754 119.405 35.5247C120.286 36.4741 120.727 37.7244 120.727 39.2758V41.1514C120.727 41.9618 120.646 42.6449 120.483 43.2006C120.344 43.7563 119.869 44.5667 119.057 45.6319C118.245 46.6507 116.889 47.16 114.987 47.16C112.969 47.16 111.508 46.5117 110.603 45.2151C109.699 43.8952 109.247 42.5406 109.247 41.1514V40.3178H112.621L112.621 41.1514Z" fill="white"/>
<path d="M124.201 46.9513V26.7718H120.27V23.6807H131.507V26.7718H127.506V46.9513H124.201Z" fill="white"/>
<path d="M132.193 46.9513V23.6807H138.038C139.569 23.6807 140.856 24.2132 141.9 25.2783C142.966 26.3434 143.5 27.6517 143.5 29.2031V31.3564C143.5 33.5098 142.584 35.1539 140.751 36.2885L144.3 46.9513H140.751L137.62 36.9831H135.533V46.9513H132.193ZM139.603 33.3015C139.812 33.0468 139.951 32.7573 140.021 32.4332C140.114 32.109 140.16 31.7501 140.16 31.3564V29.2031C140.16 28.4853 139.963 27.9064 139.569 27.4664C139.174 27.0033 138.618 26.7718 137.899 26.7718H135.533V34.0309H137.864C138.56 34.0309 139.14 33.7877 139.603 33.3015Z" fill="white"/>
<path d="M147.535 46.9513V36.9484L143.013 23.6807H146.492L149.205 32.7805L151.953 23.6807H155.467L150.84 36.9484V46.9513H147.535Z" fill="white"/>
<path d="M153.435 49.4175V43.6519H156.775V46.9514L153.435 49.4175Z" fill="white"/>
<path d="M161.843 46.9513V23.6807H165.148V46.9513H161.843Z" fill="white"/>
<path d="M175.382 46.9513L170.199 32.8153V46.9513H166.859V23.6807H170.025L175.173 37.7819V23.6807H178.513V46.9513H175.382Z" fill="white"/>
<path d="M187.967 46.9513L182.783 32.8153V46.9513H179.443V23.6807H182.609L187.758 37.7819V23.6807H191.098V46.9513H187.967Z" fill="white"/>
<path d="M193.132 25.8692C193.665 25.1282 194.338 24.5493 195.15 24.1325C195.985 23.6926 196.843 23.4727 197.724 23.4727C198.582 23.4727 199.382 23.6463 200.125 23.9936C200.89 24.341 201.528 24.8156 202.038 25.4176C202.548 26.0197 202.896 26.6448 203.082 27.2932C203.267 27.9184 203.36 28.6015 203.36 29.3424V41.1861C203.36 41.8807 203.29 42.4943 203.151 43.0269C203.035 43.5594 202.757 44.1499 202.316 44.7982C201.899 45.4466 201.284 46.0023 200.472 46.4654C199.684 46.9285 198.803 47.16 197.828 47.16C197.272 47.16 196.738 47.0906 196.228 46.9517C195.718 46.7896 195.242 46.5812 194.802 46.3265C194.361 46.0718 193.967 45.7823 193.619 45.4582C193.294 45.134 193.039 44.7983 192.854 44.4509C192.506 43.7331 192.297 43.1542 192.227 42.7143C192.158 42.2743 192.123 41.765 192.123 41.1861V29.3424C192.123 28.6478 192.193 28.0341 192.332 27.5016C192.494 26.9458 192.761 26.4017 193.132 25.8692ZM199.603 27.71C199.162 27.0616 198.559 26.7374 197.794 26.7374C197.399 26.7374 197.005 26.8532 196.611 27.0848C196.24 27.2932 195.973 27.5363 195.811 27.8142C195.672 28.092 195.579 28.3699 195.532 28.6477C195.486 28.9256 195.463 29.1572 195.463 29.3424V41.1861C195.463 41.3018 195.463 41.4292 195.463 41.5681C195.463 41.6839 195.474 41.8113 195.498 41.9502C195.521 42.1818 195.706 42.5638 196.054 43.0964C196.402 43.5826 196.982 43.8258 197.794 43.8258C198.211 43.8258 198.582 43.7331 198.907 43.5479C199.255 43.3395 199.498 43.1079 199.638 42.8532C199.8 42.5754 199.904 42.3207 199.951 42.0891C199.997 41.8576 200.02 41.5566 200.02 41.1861V29.3424C200.02 28.8793 199.997 28.5551 199.951 28.3699C199.927 28.1846 199.811 27.9647 199.603 27.71Z" fill="white"/>
<path d="M208.519 46.9513L203.752 23.6807H207.231L209.945 39.8312L212.693 23.6807H216.242L211.371 46.9513H208.519Z" fill="white"/>
<path d="M214.798 46.9513L220.017 23.6807H222.904L228.123 46.9513H224.539L223.6 41.9498H219.286L218.312 46.9513H214.798ZM219.878 38.8586H223.009L221.443 30.384L219.878 38.8586Z" fill="white"/>
<path d="M230.362 46.9513V26.7718H226.431V23.6807H237.668V26.7718H233.667V46.9513H230.362Z" fill="white"/>
<path d="M238.292 46.9513V23.6807H241.597V46.9513H238.292Z" fill="white"/>
<path d="M244.073 25.8692C244.607 25.1282 245.279 24.5493 246.091 24.1325C246.926 23.6926 247.784 23.4727 248.665 23.4727C249.524 23.4727 250.324 23.6463 251.066 23.9936C251.831 24.341 252.469 24.8156 252.979 25.4176C253.49 26.0197 253.837 26.6448 254.023 27.2932C254.209 27.9184 254.301 28.6015 254.301 29.3424V41.1861C254.301 41.8807 254.232 42.4943 254.093 43.0269C253.977 43.5594 253.698 44.1499 253.258 44.7982C252.84 45.4466 252.226 46.0023 251.414 46.4654C250.625 46.9285 249.744 47.16 248.77 47.16C248.213 47.16 247.68 47.0906 247.17 46.9517C246.659 46.7896 246.184 46.5812 245.743 46.3265C245.303 46.0718 244.908 45.7823 244.56 45.4582C244.236 45.134 243.981 44.7983 243.795 44.4509C243.447 43.7331 243.238 43.1542 243.169 42.7143C243.099 42.2743 243.064 41.765 243.064 41.1861V29.3424C243.064 28.6478 243.134 28.0341 243.273 27.5016C243.436 26.9458 243.702 26.4017 244.073 25.8692ZM250.544 27.71C250.103 27.0616 249.5 26.7374 248.735 26.7374C248.341 26.7374 247.947 26.8532 247.552 27.0848C247.181 27.2932 246.914 27.5363 246.752 27.8142C246.613 28.092 246.52 28.3699 246.474 28.6477C246.427 28.9256 246.404 29.1572 246.404 29.3424V41.1861C246.404 41.3018 246.404 41.4292 246.404 41.5681C246.404 41.6839 246.416 41.8113 246.439 41.9502C246.462 42.1818 246.648 42.5638 246.996 43.0964C247.344 43.5826 247.923 43.8258 248.735 43.8258C249.153 43.8258 249.524 43.7331 249.848 43.5479C250.196 43.3395 250.44 43.1079 250.579 42.8532C250.741 42.5754 250.846 42.3207 250.892 42.0891C250.938 41.8576 250.962 41.5566 250.962 41.1861V29.3424C250.962 28.8793 250.938 28.5551 250.892 28.3699C250.869 28.1846 250.753 27.9647 250.544 27.71Z" fill="white"/>
<path d="M264.818 46.9513L259.634 32.8153V46.9513H256.294V23.6807H259.46L264.609 37.7819V23.6807H267.949V46.9513H264.818Z" fill="white"/>
<path d="M65.3828 79.0422L70.6012 55.7715H73.4887L78.707 79.0422H75.1237L74.1844 74.0407H69.8706L68.8965 79.0422H65.3828ZM70.462 70.9495H73.593L72.0275 62.4749L70.462 70.9495Z" fill="white"/>
<path d="M87.4662 79.0422L82.2827 64.9061V79.0422H78.9429V55.7715H82.1087L87.2574 69.8728V55.7715H90.5972V79.0422H87.4662Z" fill="white"/>
<path d="M97.6034 55.7715C99.1109 55.7715 100.398 56.3041 101.465 57.3692C102.555 58.4112 103.1 59.6847 103.1 61.1898V73.2766C103.1 74.9901 102.578 76.3793 101.534 77.4445C100.491 78.5096 99.1457 79.0422 97.499 79.0422H92.3154V55.7715H97.6034ZM99.7951 73.2766V61.1898C99.7951 60.5414 99.5516 59.9973 99.0645 59.5573C98.6007 59.1174 98.0324 58.8974 97.3598 58.8974H95.6204V75.951H97.2555C98.9485 75.951 99.7951 75.0595 99.7951 73.2766Z" fill="white"/>
<path d="M107.902 79.0422V55.7715H111.207V79.0422H107.902Z" fill="white"/>
<path d="M121.329 79.0422L116.145 64.9061V79.0422H112.806V55.7715H115.971L121.12 69.8728V55.7715H124.46V79.0422H121.329Z" fill="white"/>
<path d="M125.504 79.0422V55.7715H135.454V58.8974H128.809V65.8786H134.619V69.0045H128.809V79.0422H125.504Z" fill="white"/>
<path d="M135.946 79.0422V55.7715H141.791C143.322 55.7715 144.609 56.3041 145.652 57.3692C146.719 58.4343 147.253 59.7426 147.253 61.294V63.4474C147.253 65.6008 146.337 67.2447 144.504 68.3793L148.053 79.0422H144.504L141.373 69.074H139.286V79.0422H135.946ZM143.356 65.3924C143.565 65.1377 143.704 64.8482 143.774 64.524C143.867 64.1999 143.913 63.841 143.913 63.4474V61.294C143.913 60.5762 143.716 59.9973 143.322 59.5573C142.927 59.0942 142.371 58.8627 141.652 58.8627H139.286V66.1217H141.617C142.313 66.1217 142.892 65.8786 143.356 65.3924Z" fill="white"/>
<path d="M147.599 79.0422L152.817 55.7715H155.705L160.923 79.0422H157.34L156.4 74.0407H152.086L151.112 79.0422H147.599ZM152.678 70.9495H155.809L154.243 62.4749L152.678 70.9495Z" fill="white"/>
<path d="M163.629 73.2417C163.629 73.4733 163.629 73.6701 163.629 73.8322C163.629 73.9943 163.641 74.1332 163.664 74.249C163.711 74.4806 163.885 74.8163 164.186 75.2562C164.511 75.7193 165.091 75.9508 165.926 75.9508C166.389 75.9508 166.819 75.8583 167.213 75.673C167.607 75.4646 167.897 75.1984 168.083 74.8742C168.222 74.6195 168.303 74.3764 168.326 74.1448C168.372 73.9133 168.396 73.7049 168.396 73.5196V73.207V71.5746V71.262C168.396 70.7526 168.303 70.359 168.117 70.0811C167.932 69.7801 167.514 69.4444 166.865 69.0739C166.424 68.8423 165.636 68.5182 164.499 68.1014C163.363 67.6846 162.412 67.0247 161.647 66.1216C160.881 65.2186 160.498 63.9914 160.498 62.44V61.398C160.498 59.8004 161.032 58.4342 162.099 57.2996C163.189 56.1419 164.511 55.563 166.065 55.563C167.688 55.563 169.033 56.1303 170.1 57.2649C171.19 58.3995 171.735 59.7772 171.735 61.398V62.44H168.396V61.398C168.396 61.236 168.384 61.0854 168.361 60.9465C168.361 60.8076 168.349 60.6803 168.326 60.5645C168.303 60.4487 168.245 60.3098 168.152 60.1477C168.059 59.9856 167.932 59.7888 167.769 59.5572C167.445 59.0941 166.9 58.8626 166.134 58.8626C165.462 58.8626 164.905 59.1057 164.464 59.592C164.047 60.0782 163.838 60.6803 163.838 61.398V62.44V62.7526C163.838 63.2157 163.908 63.5862 164.047 63.8641C164.209 64.1188 164.58 64.4082 165.16 64.7323C165.346 64.825 165.624 64.9524 165.995 65.1144C166.389 65.2533 166.865 65.427 167.421 65.6354C168.535 66.0059 169.532 66.6658 170.413 67.6151C171.295 68.5645 171.735 69.8148 171.735 71.3662V73.2417C171.735 74.0522 171.654 74.7353 171.492 75.291C171.353 75.8467 170.877 76.6571 170.065 77.7222C169.254 78.7411 167.897 79.2504 165.995 79.2504C163.977 79.2504 162.516 78.6021 161.612 77.3055C160.707 75.9856 160.255 74.631 160.255 73.2417V72.4082H163.629L163.629 73.2417Z" fill="white"/>
<path d="M175.106 79.0422V58.8627H171.175V55.7715H182.412V58.8627H178.411V79.0422H175.106Z" fill="white"/>
<path d="M183.001 79.0422V55.7715H188.846C190.377 55.7715 191.664 56.3041 192.708 57.3692C193.774 58.4343 194.308 59.7426 194.308 61.294V63.4474C194.308 65.6008 193.392 67.2447 191.56 68.3793L195.108 79.0422H191.56L188.429 69.074H186.341V79.0422H183.001ZM190.412 65.3924C190.62 65.1377 190.759 64.8482 190.829 64.524C190.922 64.1999 190.968 63.841 190.968 63.4474V61.294C190.968 60.5762 190.771 59.9973 190.377 59.5573C189.983 59.0942 189.426 58.8627 188.707 58.8627H186.341V66.1217H188.672C189.368 66.1217 189.948 65.8786 190.412 65.3924Z" fill="white"/>
<path d="M205.165 76.6109C204.655 77.3982 203.994 78.0349 203.182 78.5212C202.394 79.0074 201.512 79.2505 200.538 79.2505C200.051 79.2505 199.564 79.1811 199.077 79.0422C198.613 78.9032 198.172 78.7296 197.755 78.5212C197.337 78.2896 196.966 78.0349 196.642 77.757C196.317 77.456 196.074 77.1435 195.911 76.8193C195.563 76.1709 195.331 75.6036 195.215 75.1174C195.123 74.6311 195.076 74.1102 195.076 73.5544V55.7715H198.416V73.5544C198.416 73.7165 198.416 73.867 198.416 74.006C198.439 74.1217 198.462 74.2375 198.485 74.3533C198.509 74.5385 198.683 74.8627 199.007 75.3258C199.309 75.7426 199.831 75.951 200.573 75.951C201.245 75.951 201.744 75.7078 202.069 75.2216C202.417 74.7122 202.591 74.1565 202.591 73.5544V55.7715H205.93V73.5544C205.93 74.1102 205.872 74.6427 205.756 75.1521C205.64 75.6615 205.443 76.1478 205.165 76.6109Z" fill="white"/>
<path d="M218.594 73.1723C218.594 73.9133 218.547 74.55 218.455 75.0826C218.385 75.6151 218.153 76.194 217.759 76.8192C217.55 77.1433 217.283 77.4559 216.959 77.7569C216.657 78.0348 216.309 78.2895 215.915 78.5211C215.544 78.7295 215.138 78.9031 214.697 79.042C214.257 79.181 213.828 79.2504 213.41 79.2504C212.367 79.2504 211.416 79.0305 210.557 78.5905C209.723 78.1506 209.108 77.5949 208.714 76.9234C208.319 76.2519 208.064 75.6267 207.948 75.0478C207.856 74.469 207.809 73.8438 207.809 73.1723V61.1897C207.809 60.5413 207.867 59.9624 207.983 59.453C208.122 58.9204 208.4 58.3532 208.818 57.7512C209.235 57.1491 209.827 56.6397 210.592 56.2229C211.358 55.783 212.158 55.563 212.993 55.563C214.593 55.563 215.926 56.0956 216.993 57.1607C218.06 58.2027 218.594 59.5457 218.594 61.1897V62.44H215.289V61.1897C215.289 60.5413 215.103 59.9971 214.732 59.5572C214.384 59.1173 213.862 58.8973 213.167 58.8973C212.517 58.8973 212.007 59.1173 211.636 59.5572C211.288 59.9971 211.114 60.5413 211.114 61.1897V74.0753C211.16 74.4226 211.323 74.8163 211.601 75.2562C211.926 75.7193 212.459 75.9508 213.201 75.9508C213.99 75.9508 214.512 75.7425 214.767 75.3257C215.022 74.9089 215.173 74.6079 215.219 74.4227C215.265 74.2143 215.289 73.9364 215.289 73.5891V72.4082H218.594L218.594 73.1723Z" fill="white"/>
<path d="M222.798 79.0422V58.8627H218.867V55.7715H230.104V58.8627H226.103V79.0422H222.798Z" fill="white"/>
<path d="M240.704 76.6109C240.194 77.3982 239.533 78.0349 238.721 78.5212C237.933 79.0074 237.051 79.2505 236.077 79.2505C235.59 79.2505 235.103 79.1811 234.616 79.0422C234.152 78.9032 233.711 78.7296 233.294 78.5212C232.877 78.2896 232.505 78.0349 232.181 77.757C231.856 77.456 231.613 77.1435 231.45 76.8193C231.102 76.1709 230.87 75.6036 230.754 75.1174C230.662 74.6311 230.615 74.1102 230.615 73.5544V55.7715H233.955V73.5544C233.955 73.7165 233.955 73.867 233.955 74.006C233.978 74.1217 234.001 74.2375 234.024 74.3533C234.048 74.5385 234.222 74.8627 234.546 75.3258C234.848 75.7426 235.37 75.951 236.112 75.951C236.784 75.951 237.283 75.7078 237.608 75.2216C237.956 74.7122 238.13 74.1565 238.13 73.5544V55.7715H241.469V73.5544C241.469 74.1102 241.411 74.6427 241.295 75.1521C241.18 75.6615 240.982 76.1478 240.704 76.6109Z" fill="white"/>
<path d="M243.071 79.0422V55.7715H248.916C250.447 55.7715 251.734 56.3041 252.777 57.3692C253.844 58.4343 254.378 59.7426 254.378 61.294V63.4474C254.378 65.6008 253.462 67.2447 251.629 68.3793L255.178 79.0422H251.629L248.498 69.074H246.411V79.0422H243.071ZM250.481 65.3924C250.69 65.1377 250.829 64.8482 250.899 64.524C250.992 64.1999 251.038 63.841 251.038 63.4474V61.294C251.038 60.5762 250.841 59.9973 250.447 59.5573C250.052 59.0942 249.496 58.8627 248.777 58.8627H246.411V66.1217H248.742C249.438 66.1217 250.018 65.8786 250.481 65.3924Z" fill="white"/>
<path d="M265.357 75.7079V79.0422H255.372V55.7715H265.357V58.8279H258.677V65.705H264.522V68.8656H258.677V75.7079H265.357Z" fill="white"/>
<path d="M28.3935 50.4449C28.005 49.6692 27.7553 48.9489 27.6443 48.284C27.5888 47.5637 27.561 46.511 27.561 45.1259V33.823C27.561 32.604 27.7552 31.4959 28.1437 30.4986C28.3657 29.9446 28.6987 29.2797 29.1427 28.504C29.6422 27.7283 30.2803 26.7864 31.0573 25.6783C32.6112 23.5174 35.386 22.437 39.3818 22.437C43.1556 22.437 46.0692 23.7113 48.1226 26.26C50.2869 28.7533 51.3691 31.6345 51.3691 34.9034V43.9623C51.3691 46.1232 50.9252 48.284 50.0372 50.4449L39.5483 78.619H30.4746L39.798 55.1821C38.3551 55.5145 37.2452 55.6808 36.4683 55.6808C34.6923 55.6808 33.0552 55.2098 31.5568 54.2679C30.1139 53.2706 29.0595 51.9963 28.3935 50.4449ZM39.6316 30.2493C38.2997 30.2493 37.3007 30.7203 36.6348 31.6622C35.9688 32.5487 35.6359 33.6291 35.6359 34.9034V43.9623C35.6359 45.3475 35.9966 46.4833 36.718 47.3698C37.4395 48.2563 38.4939 48.6996 39.8814 48.6996C41.1023 48.6996 41.9902 48.284 42.5452 47.453C43.1556 46.5665 43.4609 45.4029 43.4609 43.9623V34.9034C43.4609 33.5183 43.1556 32.4101 42.5452 31.579C41.9902 30.6925 41.019 30.2493 39.6316 30.2493Z" fill="white"/>
<path d="M175.942 123.949V162.989L142.078 182.508L108.213 162.989V123.949L142.078 104.429L175.942 123.949Z" stroke="white" stroke-width="2.6" stroke-linejoin="round"/>
<path d="M210.069 182.66V221.7L176.204 241.219L142.34 221.7V182.66L176.204 163.14L210.069 182.66Z" stroke="white" stroke-width="2.6" stroke-linejoin="round"/>
<path d="M142.077 182.509V221.549L108.212 241.068L74.3477 221.549V182.509L108.212 162.989L142.077 182.509Z" stroke="white" stroke-width="2.6" stroke-linejoin="round"/>
<path d="M108.099 241.437V162.621L141.701 143.252L210.069 182.66L142.34 221.7L108.213 202.029L108.099 241.437Z" stroke="white" stroke-width="2.6" stroke-linejoin="round"/>
<path d="M142.34 142.883V182.357" stroke="white" stroke-width="2.6" stroke-linejoin="round"/>
<path d="M141.795 143.197L176.037 123.46L142.34 104.037L108.099 123.774L141.795 143.197Z" fill="white" stroke="white" stroke-width="2.6" stroke-linejoin="round"/>
<path d="M108.098 202.095L142.339 182.358L108.643 162.935L74.4014 182.672L108.098 202.095Z" fill="white" stroke="white" stroke-width="2.6" stroke-linejoin="round"/>
<path d="M141.963 221.482L176.205 241.219V202.373L141.963 182.636V221.482Z" fill="white" stroke="white" stroke-width="2.6" stroke-linejoin="round"/>
</svg>
